<svg width="83" height="79" viewBox="0 0 83 79" fill="none" xmlns="http://www.w3.org/2000/svg">
<path d="M67.2201 27.4777C68.5662 24.1415 68.9053 20.4839 68.1955 16.9571C67.4857 13.4302 65.7582 10.1886 63.2263 7.63278L62.9592 7.3657C61.2772 5.66577 59.2749 4.31625 57.0679 3.39524C54.861 2.47423 52.4933 2 50.1019 2C47.7105 2 45.3429 2.47423 43.1359 3.39524C40.929 4.31625 38.9266 5.66577 37.2447 7.3657L35.2633 9.34088L33.3129 7.37812C31.631 5.67819 29.6286 4.32867 27.4216 3.40766C25.2147 2.48665 22.8471 2.01242 20.4556 2.01242C18.0642 2.01242 15.6966 2.48665 13.4897 3.40766C11.2827 4.32867 9.28034 5.67819 7.59837 7.37812L7.32507 7.6452C3.91359 11.0921 2 15.746 2 20.5957C2 25.4454 3.91359 30.0992 7.32507 33.5461L9.28161 35.5151L35.2633 61.6831L40.3565 56.5526" stroke="white" stroke-width="4"/>
<path d="M74.9408 32.8008C70.4873 30.192 69.3134 30.0864 63.0773 31.7386C62.2616 31.9574 61.4313 32.1172 60.5928 32.2169C59.7543 32.117 58.924 31.9571 58.1083 31.7386C51.897 30.0864 50.7045 30.192 46.251 32.8008C42.3441 34.8753 40.0957 40.8754 41.2075 47.627C42.4994 55.4283 45.487 55.9687 45.487 64.3974C45.487 72.826 48.5119 77 50.9529 77C53.3939 77 54.6113 74.118 57.2822 66.9191C59.1145 61.9501 61.8288 61.1986 63.9531 66.9191C66.6239 74.118 67.8475 77 70.2823 77C72.7171 77 75.7358 72.8012 75.7358 64.3974C75.7358 55.9936 78.7172 55.4842 80.0216 47.627C81.0961 40.8816 78.8476 34.8753 74.9408 32.8008Z" stroke="white" stroke-width="4"/>
<path d="M46.3817 47.6332C45.5618 42.6642 47.1022 38.6331 49.0712 37.5896L49.2327 37.4964C51.4998 36.1734 52.1768 35.9561 52.9346 35.9561" stroke="white" stroke-width="4"/>
<path d="M53.9341 18.2539V25.0863" stroke="white" stroke-width="4"/>
<path d="M45.4497 19.4033L47.7665 25.8258" stroke="white" stroke-width="4"/>
<path d="M37.8662 23.4092L42.2265 28.6453" stroke="white" stroke-width="4"/>
<path d="M32.1016 29.7822L37.9774 33.1984" stroke="white" stroke-width="4"/>
<path d="M28.8408 37.7568L35.5303 38.9432" stroke="white" stroke-width="4"/>
<path d="M28.4922 46.3729L35.1755 45.1865" stroke="white" stroke-width="4"/>
<path d="M31.0898 54.59L36.9719 51.1738" stroke="white" stroke-width="4"/>
</svg>
