<svg width="66" height="76" viewBox="0 0 66 76" fill="none" xmlns="http://www.w3.org/2000/svg">
<path d="M12.9087 34.7764C12.5492 37.1048 12.5622 39.4769 12.9471 41.8012C14.3063 50.2343 17.4467 50.8188 17.4467 59.9477C17.4467 69.0766 20.6255 73.5631 23.185 73.5631C25.7444 73.5631 27.0214 70.4515 29.8275 62.6752C31.7567 57.3426 34.6067 56.4965 36.8373 62.6752C39.6434 70.4682 40.9258 73.5631 43.4853 73.5631C46.0448 73.5631 49.2181 69.0265 49.2181 59.9477C49.2181 50.8689 52.3475 50.3234 53.7232 41.8012C54.0829 39.6163 54.1162 37.3888 53.8218 35.1938" stroke="white" stroke-width="4"/>
<path d="M13.6543 26.1602V30.591H33.3353H53.0164V26.1602" stroke="white" stroke-width="4"/>
<path d="M13.3848 12.9453L18.5859 6.32129L24.927 12.9453" stroke="white" stroke-width="4"/>
<path d="M53.4817 12.9453L48.2806 6.32129L41.9395 12.9453" stroke="white" stroke-width="4"/>
<path d="M46.9327 19.7529L33.3352 4L19.7377 19.7529L6.89648 8.65909L13.1883 25.4864H33.3352H53.482L59.7684 8.65909L46.9327 19.7529Z" stroke="white" stroke-width="4"/>
<path d="M58.8769 59.853L54.3828 56.3184" stroke="white" stroke-width="4"/>
<path d="M64.1711 49.5331L58.7617 47.7686" stroke="white" stroke-width="4"/>
<path d="M65.6721 37.9941L59.9941 38.2168" stroke="white" stroke-width="4"/>
<path d="M63.195 26.6328L57.9336 28.8148" stroke="white" stroke-width="4"/>
<path d="M7.79492 59.853L12.2891 56.3184" stroke="white" stroke-width="4"/>
<path d="M2.50195 49.5331L7.91136 47.7686" stroke="white" stroke-width="4"/>
<path d="M1 37.9941L6.67796 38.2168" stroke="white" stroke-width="4"/>
<path d="M3.47266 26.6328L8.73956 28.8148" stroke="white" stroke-width="4"/>
</svg>
