<svg width="71" height="72" viewBox="0 0 71 72" fill="none" xmlns="http://www.w3.org/2000/svg">
<path d="M61.8928 12.883C56.4499 9.60873 55.0207 9.4723 47.3856 11.5515C46.3827 11.8276 45.3607 12.0265 44.3283 12.1463C43.2978 12.0262 42.2776 11.8274 41.2764 11.5515C33.6628 9.4723 32.2336 9.60327 26.7692 12.883C21.9926 15.486 19.247 23.0278 20.6117 31.5027C22.1914 41.3255 25.8397 41.9803 25.8397 52.5944C25.8397 63.2085 29.5364 68.42 32.513 68.42C35.4897 68.42 36.9834 64.8019 40.2448 55.765C42.48 49.5657 45.8005 48.5834 48.3957 55.765C51.6571 64.8019 53.1509 68.42 56.1275 68.42C59.1042 68.42 62.7955 63.1484 62.7955 52.5944C62.7955 42.0403 66.476 41.4019 68.0503 31.5027C69.4097 23.0278 66.6694 15.486 61.8928 12.883Z" stroke="white" stroke-width="4"/>
<path d="M58.3075 33.2811V29.3357L54.8204 29.0464C54.581 27.7787 54.1167 26.5657 53.4502 25.4666L55.7768 22.6998L53.0043 19.9167L50.3554 22.1923C49.2956 21.4632 48.114 20.9361 46.8683 20.637L46.5674 17.0244H42.6451L42.3549 20.5279C41.0964 20.7674 39.8912 21.237 38.798 21.914L36.0416 19.5674L33.2691 22.3615L35.5312 25.0464C34.8075 26.1095 34.2829 27.299 33.9837 28.5553L30.3945 28.8554V32.7955L33.8763 33.0901C34.1159 34.3587 34.5821 35.5719 35.2518 36.67L32.9252 39.4368L35.6977 42.2254L38.3842 39.9552C39.4452 40.6821 40.6264 41.209 41.8713 41.5105L42.1346 45.1122H46.0569L46.3525 41.6032C47.6091 41.3544 48.8119 40.8794 49.904 40.2008L52.655 42.5419L55.4275 39.7533L53.1708 37.0684C53.8904 36.0029 54.4146 34.8142 54.7183 33.5595L58.3075 33.2811Z" stroke="white" stroke-width="4"/>
<path d="M44.3386 35.699C46.8847 35.699 48.9486 33.6222 48.9486 31.0604C48.9486 28.4986 46.8847 26.4219 44.3386 26.4219C41.7925 26.4219 39.7285 28.4986 39.7285 31.0604C39.7285 33.6222 41.7925 35.699 44.3386 35.699Z" stroke="white" stroke-width="4"/>
<path d="M7.69922 50.8965V71.8518" stroke="white" stroke-width="4"/>
<path d="M4.21875 10.8252L7.1578 21.1119" stroke="white" stroke-width="4"/>
<path d="M6.29688 49.1175C6.29758 49.3043 6.33459 49.4891 6.40578 49.6613C6.47697 49.8336 6.58095 49.9898 6.71174 50.1211C6.84253 50.2524 6.99756 50.3562 7.16795 50.4266C7.33833 50.4969 7.5207 50.5323 7.70461 50.5309H13.3463C13.5305 50.5323 13.7131 50.4969 13.8838 50.4267C14.0545 50.3564 14.2099 50.2527 14.3411 50.1215C14.4723 49.9902 14.5768 49.834 14.6486 49.6617C14.7203 49.4895 14.758 49.3045 14.7594 49.1175V22.8251C14.7587 22.6376 14.7216 22.4521 14.6501 22.2792C14.5786 22.1063 14.4743 21.9495 14.343 21.8177C14.2117 21.6858 14.0561 21.5816 13.885 21.511C13.714 21.4405 13.5309 21.4049 13.3463 21.4063H7.69924C7.32824 21.4063 6.97235 21.5556 6.70951 21.8215C6.44667 22.0875 6.2983 22.4483 6.29688 22.8251V49.1175Z" stroke="white" stroke-width="4"/>
<path d="M3.37459 9.64102C3.49251 9.9994 3.74482 10.2961 4.07677 10.4667C4.40873 10.6373 4.79354 10.6681 5.14769 10.5524L10.5207 8.80063C10.6962 8.74481 10.8591 8.65422 10.9999 8.53409C11.1408 8.41396 11.2567 8.26667 11.3412 8.10073C11.4256 7.9348 11.4768 7.75351 11.4919 7.56735C11.5069 7.38118 11.4855 7.19384 11.4288 7.01615L10.1178 2.98335C10.06 2.80484 9.96814 2.63965 9.84748 2.49721C9.72681 2.35478 9.57968 2.23791 9.41451 2.15327C9.24933 2.06863 9.06935 2.01788 8.88485 2.00394C8.70036 1.99 8.51496 2.01313 8.33928 2.07201L2.96624 3.81828C2.7915 3.87581 2.62964 3.96777 2.48993 4.08891C2.35023 4.21005 2.23542 4.35798 2.15207 4.52424C2.06873 4.69049 2.01848 4.87181 2.00422 5.05782C1.98995 5.24382 2.01195 5.43086 2.06894 5.60822L3.37459 9.64102Z" stroke="white" stroke-width="4"/>
<path d="M11.0352 4.92029L14.7211 3.71973" stroke="white" stroke-width="4"/>
<path d="M10.4473 26.7764H13.9774" stroke="white" stroke-width="4"/>
<path d="M10.4473 32.0918L13.9774 32.0977" stroke="white" stroke-width="4"/>
<path d="M10.4473 37.4121H13.9774" stroke="white" stroke-width="4"/>
<path d="M10.4473 42.7324H13.9774" stroke="white" stroke-width="4"/>
</svg>
