<svg width="74" height="79" viewBox="0 0 74 79" fill="none" xmlns="http://www.w3.org/2000/svg">
<path d="M48.1495 70.5295C50.8876 70.5295 54.2864 65.726 54.2864 56.1129C54.2864 46.4998 57.6316 45.9224 59.0959 36.9045C60.3519 29.1664 57.8281 22.3212 53.4352 19.9462C48.4233 16.97 47.1078 16.839 40.0959 18.7557C39.1754 19.0111 38.2359 19.1923 37.2864 19.2974C36.3329 19.1929 35.3894 19.0118 34.465 18.7557C27.4531 16.8629 26.1316 16.97 21.1316 19.9462C16.7388 22.3271 14.209 29.1843 15.465 36.9045C16.9173 45.8331 20.2804 46.4283 20.2804 56.1129C20.2804 65.7974 23.6792 70.5295 26.4054 70.5295" stroke="white" stroke-width="4"/>
<path d="M32.4641 76.9998L28.7021 48.5534L32.4641 45.0117H42.101L45.8629 48.5534L42.101 76.9998H32.4641Z" stroke="white" stroke-width="4"/>
<path d="M40 51.3036L46.875 50" stroke="white" stroke-width="2"/>
<path d="M28 56.9583L38.3155 55" stroke="white" stroke-width="2"/>
<path d="M40 58.369L45.9941 57" stroke="white" stroke-width="2"/>
<path d="M29 64.0536L37.9821 62" stroke="white" stroke-width="2"/>
<path d="M38.5645 67.6613L43.4752 66.2148" stroke="white" stroke-width="2"/>
<path d="M30 71.1667L37.369 69" stroke="white" stroke-width="2"/>
<path d="M28.0005 49.5469H36.2862" stroke="white" stroke-width="2"/>
<path d="M60.7143 61.619C64.1729 58.4171 66.933 54.5353 68.8217 50.2171C70.7105 45.8988 71.6871 41.2371 71.6905 36.5238C71.6905 17.4762 56.0893 2 36.8452 2C17.6012 2 2 17.4762 2 36.5238C2.00002 41.4446 3.06017 46.3076 5.1083 50.7818C7.15644 55.2561 10.1445 59.2366 13.869 62.4524" stroke="white" stroke-width="4"/>
</svg>
