<svg width="83" height="79" viewBox="0 0 83 79" fill="none" xmlns="http://www.w3.org/2000/svg">
<path d="M35.7033 14.0876C35.0149 14.2489 34.2768 14.4349 33.483 14.6396C32.3099 14.9445 31.1159 15.1621 29.9107 15.2908C28.7117 15.1618 27.5238 14.9441 26.357 14.6396C17.5068 12.3635 15.8757 12.5061 9.55591 16.0971C4.01137 18.9562 0.823574 27.2233 2.40507 36.5138C4.26565 47.2556 8.47677 47.9998 8.47677 59.6347C8.47677 71.2695 12.7685 77.0001 16.223 77.0001C19.6775 77.0001 21.414 73.0371 25.2034 63.1264C27.7958 56.3042 31.6472 55.2499 34.6614 63.1264C38.4507 73.0495 40.1873 77.0001 43.6356 77.0001C47.0838 77.0001 51.3818 71.2199 51.3818 59.6347C51.3818 55.0949 52.002 52.2296 52.9261 49.7736" stroke="white" stroke-width="4"/>
<path d="M56.3914 2C51.8357 2.05022 47.3883 3.39465 43.5678 5.87649C39.7472 8.35833 36.7111 11.8753 34.8134 16.0171C32.9157 20.159 32.2348 24.755 32.8499 29.2692C33.4651 33.7833 35.3511 38.0295 38.2879 41.5126L35.8877 48.9549L42.8153 45.6803C46.7808 48.5006 51.5252 50.0178 56.3914 50.0216C59.5291 50.0054 62.6329 49.3708 65.5252 48.1543C68.4176 46.9378 71.0418 45.1631 73.2479 42.9317C75.4539 40.7003 77.1985 38.056 78.3819 35.1499C79.5654 32.2439 80.1644 29.133 80.1448 25.9953" stroke="white" stroke-width="4"/>
<path d="M80.1465 25.9953C80.1465 25.5797 80.1465 25.1642 80.1465 24.7549" stroke="white" stroke-width="4"/>
<path d="M79.8844 22.4292C79.1227 17.1839 76.6369 12.3414 72.8189 8.66497C69.001 4.98853 64.0681 2.68729 58.7979 2.12402" stroke="white" stroke-width="4" stroke-dasharray="3.76 3.76"/>
<path d="M57.633 2.03125C57.2236 2.03125 56.8081 2.03125 56.3926 2.03125" stroke="white" stroke-width="4"/>
<path d="M67.6072 22.3799H59.9726V14.6709H52.8094V22.3799H45.1748V29.6114H52.8094V37.3204H59.9726V29.6114H67.6072V22.3799Z" stroke="white" stroke-width="4"/>
</svg>
