<svg width="108" height="79" viewBox="0 0 108 79" fill="none" xmlns="http://www.w3.org/2000/svg">
<path d="M107.463 27.0439H95.8916" stroke="white" stroke-width="4"/>
<path d="M103.026 2L92.1504 5.98832" stroke="white" stroke-width="4"/>
<path d="M103.132 52.1036L92.2559 48.1152" stroke="white" stroke-width="4"/>
<path d="M107.463 27.0433L95.8916 27.0352" stroke="white" stroke-width="4"/>
<path d="M1 27.0439H12.5718" stroke="white" stroke-width="4"/>
<path d="M5.43848 2L16.3142 5.98832" stroke="white" stroke-width="4"/>
<path d="M5.33154 52.1036L16.2073 48.1152" stroke="white" stroke-width="4"/>
<path d="M1 27.0433L12.58 27.0352" stroke="white" stroke-width="4"/>
<path d="M75.3935 11.8443C68.8337 7.99519 67.1057 7.8314 57.9252 10.2883C56.7133 10.6129 55.4786 10.8456 54.2317 10.9844C52.9847 10.8456 51.7501 10.6129 50.5382 10.2883C41.3577 7.8314 39.6297 7.99519 33.0698 11.8443C27.3372 14.899 24.004 23.7437 25.6501 33.6858C27.5501 45.1512 31.9561 45.9702 31.9561 58.4347C31.9561 70.8992 36.4112 77.0004 39.9982 77.0004C43.5852 77.0004 45.3869 72.7582 49.3179 62.1528C52.0123 54.8804 56.017 53.7257 59.1454 62.1528C63.0846 72.7992 64.8781 77.0004 68.4733 77.0004C72.0685 77.0004 76.5073 70.8173 76.5073 58.4347C76.5073 46.0521 80.8969 45.3314 82.8132 33.6858C84.4593 23.7437 81.1508 14.899 75.3935 11.8443Z" stroke="white" stroke-width="4"/>
</svg>
