<svg width="66" height="76" viewBox="0 0 66 76" fill="none" xmlns="http://www.w3.org/2000/svg">
<path d="M21.9209 42.3867H16.0615C15.0947 42.3867 14.3037 41.5957 14.3037 40.6289V34.7695C14.3037 33.8027 15.0947 33.0117 16.0615 33.0117H21.9209C22.8877 33.0117 23.6787 33.8027 23.6787 34.7695V40.6289C23.6787 41.5957 22.8877 42.3867 21.9209 42.3867ZM37.7412 40.6289V34.7695C37.7412 33.8027 36.9502 33.0117 35.9834 33.0117H30.124C29.1572 33.0117 28.3662 33.8027 28.3662 34.7695V40.6289C28.3662 41.5957 29.1572 42.3867 30.124 42.3867H35.9834C36.9502 42.3867 37.7412 41.5957 37.7412 40.6289ZM51.8037 40.6289V34.7695C51.8037 33.8027 51.0127 33.0117 50.0459 33.0117H44.1865C43.2197 33.0117 42.4287 33.8027 42.4287 34.7695V40.6289C42.4287 41.5957 43.2197 42.3867 44.1865 42.3867H50.0459C51.0127 42.3867 51.8037 41.5957 51.8037 40.6289ZM37.7412 54.6914V48.832C37.7412 47.8652 36.9502 47.0742 35.9834 47.0742H30.124C29.1572 47.0742 28.3662 47.8652 28.3662 48.832V54.6914C28.3662 55.6582 29.1572 56.4492 30.124 56.4492H35.9834C36.9502 56.4492 37.7412 55.6582 37.7412 54.6914ZM23.6787 54.6914V48.832C23.6787 47.8652 22.8877 47.0742 21.9209 47.0742H16.0615C15.0947 47.0742 14.3037 47.8652 14.3037 48.832V54.6914C14.3037 55.6582 15.0947 56.4492 16.0615 56.4492H21.9209C22.8877 56.4492 23.6787 55.6582 23.6787 54.6914ZM51.8037 54.6914V48.832C51.8037 47.8652 51.0127 47.0742 50.0459 47.0742H44.1865C43.2197 47.0742 42.4287 47.8652 42.4287 48.832V54.6914C42.4287 55.6582 43.2197 56.4492 44.1865 56.4492H50.0459C51.0127 56.4492 51.8037 55.6582 51.8037 54.6914ZM65.8662 16.6055V68.168C65.8662 72.0498 62.7168 75.1992 58.835 75.1992H7.27246C3.39062 75.1992 0.241211 72.0498 0.241211 68.168V16.6055C0.241211 12.7236 3.39062 9.57422 7.27246 9.57422H14.3037V1.95703C14.3037 0.990234 15.0947 0.199219 16.0615 0.199219H21.9209C22.8877 0.199219 23.6787 0.990234 23.6787 1.95703V9.57422H42.4287V1.95703C42.4287 0.990234 43.2197 0.199219 44.1865 0.199219H50.0459C51.0127 0.199219 51.8037 0.990234 51.8037 1.95703V9.57422H58.835C62.7168 9.57422 65.8662 12.7236 65.8662 16.6055ZM58.835 67.2891V23.6367H7.27246V67.2891C7.27246 67.7725 7.66797 68.168 8.15137 68.168H57.9561C58.4395 68.168 58.835 67.7725 58.835 67.2891Z" fill="white"/>
</svg>
