<svg width="85" height="76" viewBox="0 0 85 76" fill="none" xmlns="http://www.w3.org/2000/svg">
<path d="M70.9186 28.3242H54.1769L38.7813 1.37988C38.5761 1.02115 38.2796 0.723032 37.9221 0.515702C37.5645 0.308372 37.1585 0.199193 36.7452 0.199219H27.1505C25.5934 0.199219 24.4698 1.68896 24.8976 3.18604L32.0797 28.3242H17.0123L10.6842 19.8867C10.2418 19.2964 9.546 18.9492 8.80918 18.9492H2.95127C1.42637 18.9492 0.307229 20.3818 0.677834 21.8613L5.29356 37.6992L0.677834 53.5371C0.307229 55.0166 1.42637 56.4492 2.95127 56.4492H8.80918C9.54746 56.4492 10.2418 56.1021 10.6842 55.5117L17.0123 47.0742H32.0797L24.8976 72.2109C24.4698 73.708 25.5934 75.1992 27.1505 75.1992H36.7452C37.586 75.1992 38.3624 74.748 38.7799 74.0186L54.1769 47.0742H70.9186C76.0968 47.0742 84.9811 42.8774 84.9811 37.6992C84.9811 32.521 76.0968 28.3242 70.9186 28.3242Z" fill="white"/>
</svg>
