<svg width="86" height="76" viewBox="0 0 86 76" fill="none" xmlns="http://www.w3.org/2000/svg">
<path d="M43.0387 17.0461L11.0281 45.2745C10.7908 45.4884 10.4876 45.588 10.2269 45.7652V72.8555C10.2269 73.4771 10.4738 74.0732 10.9133 74.5128C11.3528 74.9523 11.949 75.1992 12.5706 75.1992H73.5069C74.1285 75.1992 74.7246 74.9523 75.1641 74.5128C75.6037 74.0732 75.8506 73.4771 75.8506 72.8555V45.7711C75.6016 45.6012 75.3057 45.5045 75.0801 45.3023L43.0387 17.0461ZM57.101 55.2777C57.101 55.5885 56.9775 55.8866 56.7577 56.1064C56.538 56.3261 56.2399 56.4496 55.9291 56.4496H47.7261V64.6525C47.7261 64.9633 47.6027 65.2614 47.3829 65.4812C47.1631 65.7009 46.8651 65.8244 46.5543 65.8244H39.5232C39.2124 65.8244 38.9143 65.7009 38.6945 65.4812C38.4748 65.2614 38.3513 64.9633 38.3513 64.6525V56.4496H30.1483C29.8376 56.4496 29.5395 56.3261 29.3197 56.1064C29.1 55.8866 28.9765 55.5885 28.9765 55.2777V48.2466C28.9765 47.9358 29.1 47.6378 29.3197 47.418C29.5395 47.1982 29.8376 47.0748 30.1483 47.0748H38.3513V38.8718C38.3513 38.561 38.4748 38.2629 38.6945 38.0432C38.9143 37.8234 39.2124 37.6999 39.5232 37.6999H46.5543C46.8651 37.6999 47.1631 37.8234 47.3829 38.0432C47.6027 38.2629 47.7261 38.561 47.7261 38.8718V47.0748H55.9291C56.2399 47.0748 56.538 47.1982 56.7577 47.418C56.9775 47.6378 57.101 47.9358 57.101 48.2466V55.2777ZM84.4476 34.8113L46.9571 1.70651C45.884 0.736361 44.489 0.199219 43.0424 0.199219C41.5958 0.199219 40.2007 0.736361 39.1277 1.70651L1.62839 34.8113C1.39933 35.017 1.21303 35.2658 1.08015 35.5435C0.947265 35.8213 0.870398 36.1224 0.853938 36.4299C0.837478 36.7373 0.881749 37.0449 0.984221 37.3352C1.08669 37.6256 1.24536 37.8928 1.45115 38.1218L4.58732 41.611C4.79302 41.8401 5.04182 42.0264 5.31954 42.1593C5.59725 42.2921 5.89842 42.369 6.20584 42.3855C6.51327 42.4019 6.82093 42.3577 7.11124 42.2552C7.40155 42.1527 7.66883 41.994 7.8978 41.7882L41.489 12.158C41.9171 11.7802 42.4685 11.5718 43.0395 11.5718C43.6104 11.5718 44.1618 11.7802 44.59 12.158L78.1811 41.7868C78.4101 41.9926 78.6774 42.1512 78.9677 42.2537C79.258 42.3562 79.5656 42.4005 79.8731 42.384C80.1805 42.3675 80.4817 42.2907 80.7594 42.1578C81.0371 42.0249 81.2859 41.8386 81.4916 41.6095L84.6263 38.1203C85.0413 37.6578 85.2556 37.0494 85.2221 36.4288C85.1886 35.8083 84.91 35.2265 84.4476 34.8113Z" fill="white"/>
</svg>
