<svg width="94" height="76" viewBox="0 0 94 76" fill="none" xmlns="http://www.w3.org/2000/svg">
<path d="M16.9768 20.4537L31.9017 25.9C37.0452 13.9558 44.5025 4.76397 52.2186 0.455911C38.2043 -0.26039 24.6256 5.86991 15.8922 16.8327C14.9144 18.0631 15.5035 19.9161 16.9768 20.4537ZM36.3071 27.5083L71.1644 40.2274C76.3913 22.4474 73.8977 6.29325 64.9334 3.02375C63.8518 2.62825 62.722 2.43782 61.5585 2.43782C53.078 2.43929 42.8099 12.57 36.3071 27.5083ZM76.3343 9.26245C77.2434 11.6501 77.9173 14.3308 78.2637 17.3468C79.1026 24.6549 78.0561 33.2007 75.4938 41.8065L90.4933 47.2791C91.9681 47.8167 93.608 46.7767 93.646 45.2035C93.9851 31.1865 87.5203 17.7467 76.3343 9.26245ZM81.9646 66.0216H47.04L56.5319 39.8773L47.7415 36.6694L37.0861 66.0201H2.45094C1.15884 66.0201 0.112305 67.0689 0.112305 68.3653V73.0542C0.112305 74.3491 1.15884 75.3994 2.45094 75.3994H81.9646C83.2567 75.3994 84.3032 74.3491 84.3032 73.0542V68.3653C84.3032 67.0704 83.2567 66.0216 81.9646 66.0216Z" fill="white"/>
</svg>
