<svg width="129" height="158" viewBox="0 0 129 158" fill="none" xmlns="http://www.w3.org/2000/svg">
<g filter="url(#filter0_d_206_1546)">
<path d="M63.4773 149.989C52.0189 149.989 41.839 148.024 32.9375 144.094C24.0833 140.116 17.1231 134.648 12.0568 127.688C6.99053 120.727 4.43371 112.725 4.38636 103.682H44.1591C44.2064 106.475 45.0587 108.985 46.7159 111.21C48.4205 113.388 50.7405 115.093 53.6761 116.324C56.6117 117.555 59.9735 118.17 63.7614 118.17C67.4072 118.17 70.6269 117.531 73.4205 116.253C76.214 114.927 78.392 113.104 79.9545 110.784C81.517 108.464 82.2746 105.812 82.2273 102.83C82.2746 99.8939 81.375 97.2898 79.5284 95.017C77.7292 92.7443 75.196 90.9687 71.929 89.6903C68.6619 88.4119 64.8977 87.7727 60.6364 87.7727H45.8636V60.5H60.6364C64.5663 60.5 68.0227 59.8608 71.0057 58.5824C74.036 57.304 76.3797 55.5284 78.0369 53.2557C79.7415 50.983 80.5701 48.3788 80.5227 45.4432C80.5701 42.6023 79.8835 40.0928 78.4631 37.9148C77.0426 35.7367 75.054 34.0322 72.4972 32.8011C69.9877 31.5701 67.0758 30.9545 63.7614 30.9545C60.1629 30.9545 56.9432 31.5937 54.1023 32.8722C51.3087 34.1506 49.107 35.9261 47.4972 38.1989C45.8873 40.4716 45.0587 43.0758 45.0114 46.0114H7.22727C7.27462 37.1098 9.71307 29.25 14.5426 22.4318C19.4195 15.6136 26.0956 10.2633 34.571 6.38068C43.0464 2.4981 52.7765 0.556813 63.7614 0.556813C74.5095 0.556813 84.0028 2.37973 92.2415 6.02556C100.527 9.6714 106.991 14.6903 111.631 21.0824C116.318 27.4271 118.638 34.6951 118.591 42.8864C118.686 51.0303 115.892 57.7064 110.21 62.9148C104.576 68.1231 97.4261 71.2008 88.7614 72.1477V73.2841C100.504 74.5625 109.334 78.161 115.253 84.0795C121.171 89.9508 124.083 97.3371 123.989 106.239C124.036 114.761 121.479 122.313 116.318 128.895C111.205 135.476 104.079 140.637 94.9403 144.378C85.8494 148.118 75.3617 149.989 63.4773 149.989Z" fill="#5DA9E9" fill-opacity="0.4" shape-rendering="crispEdges"/>
</g>
<defs>
<filter id="filter0_d_206_1546" x="0.386719" y="0.556641" width="127.744" height="157.432" filterUnits="userSpaceOnUse" color-interpolation-filters="sRGB">
<feFlood flood-opacity="0" result="BackgroundImageFix"/>
<feColorMatrix in="SourceAlpha" type="matrix" values="0 0 0 0 0 0 0 0 0 0 0 0 0 0 0 0 0 0 127 0" result="hardAlpha"/>
<feOffset dy="4"/>
<feGaussianBlur stdDeviation="2"/>
<feComposite in2="hardAlpha" operator="out"/>
<feColorMatrix type="matrix" values="0 0 0 0 0 0 0 0 0 0 0 0 0 0 0 0 0 0 0.25 0"/>
<feBlend mode="normal" in2="BackgroundImageFix" result="effect1_dropShadow_206_1546"/>
<feBlend mode="normal" in="SourceGraphic" in2="effect1_dropShadow_206_1546" result="shape"/>
</filter>
</defs>
</svg>
