<svg width="42" height="42" viewBox="0 0 42 42" fill="none" xmlns="http://www.w3.org/2000/svg">
<path d="M21 40.9999C17.0444 40.9999 13.1776 39.827 9.88861 37.6293C6.59962 35.4317 4.03617 32.3082 2.52242 28.6536C1.00866 24.9991 0.612598 20.9778 1.38431 17.0982C2.15601 13.2186 4.06083 9.6549 6.85789 6.85786C10.6086 3.10714 15.6957 1 21 1C26.3043 1 31.3914 3.10714 35.1421 6.85786C38.8929 10.6086 41 15.6957 41 21C41 26.3043 38.8929 31.3914 35.1421 35.1421C33.2893 37.0051 31.0853 38.4821 28.6578 39.4876C26.2303 40.4931 23.6275 41.0071 21 40.9999ZM21 3.6667C11.4425 3.6667 3.66673 11.4424 3.66673 21C3.66673 30.5575 11.4425 38.3333 21 38.3333C30.5576 38.3333 38.3333 30.5575 38.3333 21C38.3333 11.4424 30.5576 3.6667 21 3.6667Z" fill="#777676" stroke="#777676" stroke-width="1.5"/>
<path d="M21.0007 28.2188L10.7246 17.9426L12.6101 16.0571L21.0007 24.4475L29.3912 16.0571L31.2767 17.9426L21.0007 28.2188Z" fill="#777676" stroke="#777676" stroke-width="1.5"/>
</svg>
