<svg width="66" height="76" viewBox="0 0 66 76" fill="none" xmlns="http://www.w3.org/2000/svg">
<path d="M21.9209 42.3865H16.0615C15.0947 42.3865 14.3037 41.5955 14.3037 40.6287V34.7693C14.3037 33.8025 15.0947 33.0115 16.0615 33.0115H21.9209C22.8877 33.0115 23.6787 33.8025 23.6787 34.7693V40.6287C23.6787 41.5955 22.8877 42.3865 21.9209 42.3865ZM37.7412 40.6287V34.7693C37.7412 33.8025 36.9502 33.0115 35.9834 33.0115H30.124C29.1572 33.0115 28.3662 33.8025 28.3662 34.7693V40.6287C28.3662 41.5955 29.1572 42.3865 30.124 42.3865H35.9834C36.9502 42.3865 37.7412 41.5955 37.7412 40.6287ZM51.8037 40.6287V34.7693C51.8037 33.8025 51.0127 33.0115 50.0459 33.0115H44.1865C43.2197 33.0115 42.4287 33.8025 42.4287 34.7693V40.6287C42.4287 41.5955 43.2197 42.3865 44.1865 42.3865H50.0459C51.0127 42.3865 51.8037 41.5955 51.8037 40.6287ZM37.7412 54.6912V48.8318C37.7412 47.865 36.9502 47.074 35.9834 47.074H30.124C29.1572 47.074 28.3662 47.865 28.3662 48.8318V54.6912C28.3662 55.658 29.1572 56.449 30.124 56.449H35.9834C36.9502 56.449 37.7412 55.658 37.7412 54.6912ZM23.6787 54.6912V48.8318C23.6787 47.865 22.8877 47.074 21.9209 47.074H16.0615C15.0947 47.074 14.3037 47.865 14.3037 48.8318V54.6912C14.3037 55.658 15.0947 56.449 16.0615 56.449H21.9209C22.8877 56.449 23.6787 55.658 23.6787 54.6912ZM51.8037 54.6912V48.8318C51.8037 47.865 51.0127 47.074 50.0459 47.074H44.1865C43.2197 47.074 42.4287 47.865 42.4287 48.8318V54.6912C42.4287 55.658 43.2197 56.449 44.1865 56.449H50.0459C51.0127 56.449 51.8037 55.658 51.8037 54.6912ZM65.8662 16.6052V68.1677C65.8662 72.0496 62.7168 75.199 58.835 75.199H7.27246C3.39062 75.199 0.241211 72.0496 0.241211 68.1677V16.6052C0.241211 12.7234 3.39062 9.57397 7.27246 9.57397H14.3037V1.95679C14.3037 0.98999 15.0947 0.198975 16.0615 0.198975H21.9209C22.8877 0.198975 23.6787 0.98999 23.6787 1.95679V9.57397H42.4287V1.95679C42.4287 0.98999 43.2197 0.198975 44.1865 0.198975H50.0459C51.0127 0.198975 51.8037 0.98999 51.8037 1.95679V9.57397H58.835C62.7168 9.57397 65.8662 12.7234 65.8662 16.6052ZM58.835 67.2888V23.6365H7.27246V67.2888C7.27246 67.7722 7.66797 68.1677 8.15137 68.1677H57.9561C58.4395 68.1677 58.835 67.7722 58.835 67.2888Z" fill="#777676"/>
</svg>
