<svg width="107" height="106" viewBox="0 0 107 106" fill="none" xmlns="http://www.w3.org/2000/svg">
<path d="M20.4858 62.7347V48.7504C19.9061 45.1758 17.3942 41.7461 13.884 41.7461H11.7667H11.501" stroke="#003F91" stroke-width="4"/>
<path d="M22.1047 91.4757L3.28178 59.5379L3 34.3467H3.26568H5.41526C8.92545 34.3467 11.4373 37.7522 12.017 41.3268V55.2951L17.1857 60.818L31.9832 75.7765L22.773 66.5261C20.4865 64.1108 21.2513 59.562 23.6747 57.2514L24.3268 56.712L40.6942 73.2566L42.8036 83.916V94.9537" stroke="#003F91" stroke-width="4"/>
<path d="M49.5424 95.623H16.6143" stroke="#003F91" stroke-width="4"/>
<path d="M86.9551 62.7343V48.7499C87.5267 45.1753 90.0386 41.7698 93.5568 41.7617H95.6742H95.9399" stroke="#003F91" stroke-width="4"/>
<path d="M85.3358 91.4757L104.159 59.5379L104.441 34.3467H104.175H102.025C98.5151 34.3467 95.9951 37.7522 95.4235 41.3268V55.2951L90.2549 60.818L75.4573 75.7765L84.6514 66.5261C86.9379 64.1108 86.1731 59.562 83.7498 57.2514L83.0976 56.712L66.7463 73.2566L64.6289 83.916V94.9537" stroke="#003F91" stroke-width="4"/>
<path d="M57.8994 95.623H90.8275" stroke="#003F91" stroke-width="4"/>
<path d="M41.749 101.701V106" stroke="#003F91" stroke-width="4"/>
<path d="M65.4102 101.701V106" stroke="#003F91" stroke-width="4"/>
<path d="M74.2907 14.3728C73.3922 12.373 71.8884 10.7059 69.9915 9.60667C64.9436 6.6359 63.6152 6.52318 56.5546 8.39904C55.6247 8.65267 54.6775 8.83833 53.7207 8.95455C52.7615 8.8402 51.8117 8.65724 50.8787 8.40709C43.802 6.53123 42.4494 6.64395 37.4257 9.61472C32.9977 11.9575 30.4536 18.8088 31.7176 26.4491C33.1829 35.3051 36.5481 35.9492 36.5481 45.5619C36.5481 55.1747 39.9698 59.8925 42.7312 59.8925C45.4927 59.8925 46.8774 56.6158 49.9046 48.428C51.9817 42.7924 55.0571 41.9229 57.4643 48.428C60.4915 56.6158 61.8762 59.8925 64.6377 59.8925C67.3991 59.8925 70.8288 55.1183 70.8288 45.5619C70.8288 36.0055 74.1941 35.4258 75.6593 26.4491" stroke="#003F91" stroke-width="4"/>
<path d="M85.3206 6L89.2092 16.1522L99.2567 20.081L89.2092 24.0098L85.3206 34.17L81.4401 24.0098L71.3926 20.081L81.4401 16.1522L85.3206 6Z" stroke="#003F91" stroke-width="4"/>
<path d="M15.7607 24.541L23.4654 32.3343" stroke="#003F91" stroke-width="4"/>
<path d="M23.4654 24.541L15.7607 32.3343" stroke="#003F91" stroke-width="4"/>
</svg>
