<svg id="Layer_1" data-name="Layer 1" xmlns="http://www.w3.org/2000/svg" xmlns:xlink="http://www.w3.org/1999/xlink" viewBox="0 0 1012.99 488.01"><defs><style>.cls-1{fill:none;}.cls-2{clip-path:url(#clip-path);}.cls-3{fill:#535354;}.cls-4{fill:#3dbae5;}</style><clipPath id="clip-path" transform="translate(-200.82 -488.47)"><rect class="cls-1" x="-14" y="12" width="1440" height="1440"/></clipPath></defs><title>csak logo</title><g class="cls-2"><path class="cls-3" d="M1158.46,672c1.8,5.41,5,14.42,9.33,26.93,2.23,6.26,4.13,11.77,5.83,16.54s3.07,8.91,4.24,12.19l19.3-55.66h16.64c-2.86,7.64-7.21,19.08-12.93,34.46S1190.8,733.27,1188,740.9l-13.25,35.84H1159.1l10.7-29.58-28-75.38Z" transform="translate(-200.82 -488.47)"/><path class="cls-3" d="M1069.3,642.31h16.22v57.35l29.15-27.88,21.84.11-32.65,30.74q22.26,28.3,35.73,44.53H1120.4l-27.57-34-7.31,7.1v26.93H1069.3Z" transform="translate(-200.82 -488.47)"/><polygon class="cls-3" points="795.22 245.75 833.07 197.3 833.07 197.09 796.81 197.09 796.81 183.31 852.68 183.31 852.68 196.46 815.26 244.91 815.26 245.12 854.27 245.12 854.27 258.69 795.22 258.69 795.22 245.75"/><path class="cls-3" d="M917.05,709.42c0-11.67,3.29-21.21,9.76-28.42s15.16-10.81,26-10.81a37.27,37.27,0,0,1,10.71,1.38,34.27,34.27,0,0,1,8.48,3.71,24.54,24.54,0,0,1,6.36,5.62,34.8,34.8,0,0,1,4.35,6.78,44.9,44.9,0,0,1,2.65,7.74c-4.88.85-8.59,1.59-11.24,2s-4.24.85-4.66.95c-1.27-4.77-3.29-8.37-6.26-10.81a15.49,15.49,0,0,0-10.28-3.71c-6.26,0-11,2.33-14.32,6.89s-5.08,10.81-5.08,18.55,1.69,14,5.08,18.66,8.06,7,14.32,7a16.19,16.19,0,0,0,10.7-3.71c2.87-2.44,4.88-5.94,6.15-10.71,1.28.21,3.18.53,5.83,1.06s6,1.17,10.08,1.91a31.51,31.51,0,0,1-9.86,17.07,26.71,26.71,0,0,1-9.76,5.72,36.88,36.88,0,0,1-13,2.23c-10.92,0-19.61-3.61-26-10.71s-9.76-16.54-9.76-28.41Z" transform="translate(-200.82 -488.47)"/><path class="cls-3" d="M852.06,709.63c0,8.27,1.7,14.52,5.09,19a18.12,18.12,0,0,0,28.1,0c3.39-4.45,5.09-10.81,5.09-19s-1.7-14.31-5.09-18.77a18.09,18.09,0,0,0-28-.1c-3.39,4.45-5.09,10.7-5.09,18.87Zm-15.79-.11c0-11.66,3.18-21.2,9.43-28.41s14.74-10.82,25.55-10.82,19.19,3.61,25.55,10.93c6.36,7.1,9.54,16.64,9.54,28.3s-3.18,21.21-9.43,28.42-14.74,10.7-25.45,10.7-19.4-3.6-25.65-10.7-9.33-16.65-9.33-28.42Z" transform="translate(-200.82 -488.47)"/><path class="cls-3" d="M758.66,642.31h16v37.53a26,26,0,0,1,8.16-6.68,24.28,24.28,0,0,1,11.88-2.87c10.49.11,18,3.08,22.79,8.81,4.77,5.93,7.1,14.84,7.1,27v41H808.7v-41c0-7.85-1.38-13.46-4-16.86-2.76-3.6-7-5.3-12.93-5.41-11.24,0-16.86,7.43-16.86,22.16v41.14H758.77Z" transform="translate(-200.82 -488.47)"/><path class="cls-3" d="M726.22,702.21c-.22-5.73-1.81-10.18-4.56-13.36s-7-4.77-12.3-4.77c-5.09,0-9.22,1.8-12.19,5.4a20.18,20.18,0,0,0-5,12.83Zm-51.32,7.42c0-11.67,3.18-21.1,9.44-28.31s14.74-10.81,25.23-10.81,18.77,3.28,24.81,9.86,9.22,15.58,9.22,26.92c0,1.49,0,3-.1,4.14a24,24,0,0,1-.21,3H691.55a23.15,23.15,0,0,0,5.51,14.74,16.5,16.5,0,0,0,13.25,6.15,21.42,21.42,0,0,0,11.67-3.4,21.65,21.65,0,0,0,7.95-10.71c.53.11,2.12.53,4.56,1.28s5.83,1.69,10.17,3a32.87,32.87,0,0,1-4,8.27,33.37,33.37,0,0,1-6.57,7.43,29.12,29.12,0,0,1-10.18,5.51,41.19,41.19,0,0,1-13.46,2c-10.39,0-18.87-3.6-25.45-10.92s-9.86-16.43-9.86-28Z" transform="translate(-200.82 -488.47)"/><polygon class="cls-3" points="403.27 153.83 420.02 153.83 420.02 244.59 468.04 244.59 468.04 258.69 403.27 258.69 403.27 153.83"/><rect class="cls-3" x="796.39" y="287.63" width="16.01" height="104.85"/><path class="cls-3" d="M926.81,858.69a10,10,0,0,0,3.28,7.42c2.23,2,5.52,3.08,10.08,3.08,6.25,0,11.13-1.8,14.84-5.3s5.51-7.42,5.51-11.88V848.2H942.81a25.37,25.37,0,0,0-8,1.16,10.09,10.09,0,0,0-5,2.76,12.93,12.93,0,0,0-2.34,3.39,9.14,9.14,0,0,0-.63,3.29Zm-16.33.11q0-9.39,8.27-15.91c5.51-4.34,13-6.57,22.47-6.57h19.3v-6.47c-.11-.63-.11-1.16-.21-1.8a14.36,14.36,0,0,0-1.38-3.71,10.8,10.8,0,0,0-2.86-3.29,17.54,17.54,0,0,0-4.67-2.22,27.4,27.4,0,0,0-7-.85c-4.67,0-8.38,1.17-10.92,3.5s-4,5.72-4.25,10.18c-1.69-.32-4.24-.85-7.84-1.49s-6.26-1.27-8.06-1.59a25.31,25.31,0,0,1,5.3-13.67,26.15,26.15,0,0,1,11-8.17,40.68,40.68,0,0,1,14.74-2.65c10.7,0,18.76,2.65,24.27,7.85s8.17,12.83,8.17,23.11v26.29a11.66,11.66,0,0,0,.85,5.3,3.19,3.19,0,0,0,3.18,1.7,12.09,12.09,0,0,0,3.81-.53v13a33.77,33.77,0,0,1-9.43,1.17c-3.82,0-6.68-1-8.8-2.87a13.5,13.5,0,0,1-4.24-7.95,31.79,31.79,0,0,1-23.65,11.35c-8.58,0-15.37-2.23-20.35-6.58a22.4,22.4,0,0,1-7.42-17.38Z" transform="translate(-200.82 -488.47)"/><path class="cls-3" d="M855.67,805.58H868.6V783.84h15.9v21.74h15.7v12.3H884.5v42.51c0,3.07.53,5.09,1.59,6.15s2.87,1.69,5.52,1.69c.32,0,.85-.1,1.37-.1a16,16,0,0,0,2.13-.11c.85,0,1.48-.1,2.12-.1h1.59v13l-9.65.53h-1.91c-6.78,0-11.56-1.81-14.42-5.41s-4.24-9.12-4.24-16.54V817.88H855.67Z" transform="translate(-200.82 -488.47)"/><path class="cls-3" d="M780.82,805.58h14.63l1.48,8.16c1.38-2.44,3.92-4.67,7.64-6.57a25.31,25.31,0,0,1,12.19-3.08c10.71.11,18.34,3.08,23,8.8s6.9,15,6.9,27.14V881H830.75V840c0-7.63-1.38-13.25-4-16.85s-7-5.3-12.93-5.3c-11.24,0-16.86,7.31-16.86,22.15V881h-16Z" transform="translate(-200.82 -488.47)"/><path class="cls-3" d="M748.37,836c-.31-5.72-1.8-10.17-4.55-13.35s-7-4.78-12.3-4.78a15.41,15.41,0,0,0-12.3,5.41,20.69,20.69,0,0,0-4.88,12.94Zm-51.31,7.43c0-11.67,3.08-21.1,9.44-28.31s14.73-10.82,25.23-10.82,18.77,3.29,24.81,9.86,9.22,15.69,9.22,26.93c0,1.59,0,3-.1,4.14a20.93,20.93,0,0,1-.22,3H713.71a23.12,23.12,0,0,0,5.51,14.73,16.24,16.24,0,0,0,13.14,6.15,21.47,21.47,0,0,0,11.77-3.39c3.4-2.23,6-5.83,8-10.71.52.11,2,.53,4.55,1.27s5.83,1.81,10.18,3a35.53,35.53,0,0,1-4,8.38,38.25,38.25,0,0,1-6.57,7.31A29,29,0,0,1,746,880.43a41.93,41.93,0,0,1-13.46,2.12c-10.39,0-19-3.71-25.55-11s-9.76-16.65-9.76-28.2Z" transform="translate(-200.82 -488.47)"/><path class="cls-3" d="M642.14,867a22.65,22.65,0,0,0,19.51-10c4.67-6.68,7.1-16.12,7.1-28.42s-2.43-21.73-7.1-28.3a22.63,22.63,0,0,0-19.51-10H620V867ZM603.45,776.1h38.69c14.21.21,25,5,32.55,14.32s11.13,22.15,11.13,38.16c0,10.71-1.48,19.93-4.56,27.67A39,39,0,0,1,667,874.49c-6.47,4.34-14.42,6.47-24,6.47H603.66Z" transform="translate(-200.82 -488.47)"/><path class="cls-4" d="M333.1,511.58a34,34,0,0,0-24.39,58.1,34.65,34.65,0,0,0,24.39,9.86,35,35,0,0,0,24.38-9.86,34.43,34.43,0,0,0,0-48.24,34.55,34.55,0,0,0-24.38-9.86M356.74,649.3a148.67,148.67,0,0,1,29.9,33.29,210.61,210.61,0,0,1,21.09,42.73c1.49,4,2.87,8.16,4.14,12.19.95,3.29,1.91,6.47,2.86,9.76,7.53-5.52,13.46-12.94,17.81-23,4.77-10.92,7.63-24.81,8.8-42.52,1.17-19-8.06-28.83-18-33.92a54.79,54.79,0,0,0-21.21-5.62h-1.06a146.37,146.37,0,0,0-25.33,2.12,115.88,115.88,0,0,0-19,5M246,771c-.85-.42-1.59-1-2.34-1.38l-3.49-2.22c-11.56-7.63-20.68-18-27.25-31.91s-10.5-31-11.88-52.48c-3.6-56.3,48.88-63,61.28-63.83,1.28,0,2-.1,2.44-.1H265a166.3,166.3,0,0,1,37.53,4,138.22,138.22,0,0,1,30.54,10.81,138,138,0,0,1,30.53-10.81,165.31,165.31,0,0,1,37.42-4h.43c.42,0,1.27.1,2.44.1,12.3.85,64.88,7.53,61.28,63.83-1.38,21.52-5.41,38.69-11.88,52.48s-15.69,24.28-27.25,31.91a30.74,30.74,0,0,1-3.49,2.22c-.75.43-1.59,1-2.34,1.38,7.11,36.79,7,69.76,7,83.65l.11.75c0,15.05-1.8,58.41-11.67,88.73-6,18.56-15.26,32.34-29,32.34-29.8,0-31.81-37.64-33.93-77.61l-.11-.1c-.85-17-1.8-34.46-4.77-47.71-2.65-12.51-7.1-21-14.73-21s-12.09,8.48-14.85,21c-2.86,13.25-3.82,30.85-4.77,47.81-1.06,19.72-2.12,38.7-6.47,53-4.45,14.85-12.4,24.6-27.45,24.6-13.89,0-23-13.78-29.05-32.34-9.76-30.32-11.45-73.68-11.45-88.73V853.6c0-14.42,0-46.65,6.89-82.59m63.4-121.71a114.82,114.82,0,0,0-18.87-5A148.82,148.82,0,0,0,265,642.2H264a54.88,54.88,0,0,0-21.1,5.62c-10,5.09-19.29,14.95-18,33.92,1.06,17.71,4,31.6,8.69,42.52,4.45,10.07,10.39,17.49,17.92,23,.85-3.29,1.8-6.47,2.86-9.76,1.27-4,2.65-8.16,4.14-12.19a204.59,204.59,0,0,1,21.1-42.73,145.56,145.56,0,0,1,29.79-33.29m84,107.82q-1.43-5.72-3.18-11.13c-1.27-4.24-2.65-8.48-4.24-12.72A177.25,177.25,0,0,0,365,692.35,120,120,0,0,0,333.1,661a119.92,119.92,0,0,0-31.92,31.38,177.62,177.62,0,0,0-21,40.92c-1.48,4.24-3,8.48-4.24,12.72-1.06,3.61-2.12,7.32-3.07,11.13a152,152,0,0,0,25.86,4.56,339.29,339.29,0,0,0,34.36,1.49,339.21,339.21,0,0,0,34.35-1.49,153.8,153.8,0,0,0,25.86-4.56M333.1,807c19.08,0,29.15,12,34.87,29.69,5.52,17.07,6.68,39.44,7.85,61.07.85,14.74,1.59,29,3.39,39.65,1.59,9.65,3.82,16,7.43,16,3.39,0,6.67-11,9.54-25.45,5.19-27,7.84-65.62,7.84-72.51v-.85c0-12.83,0-42.09-5.83-75a164.2,164.2,0,0,1-28.73,4.88c-11.13,1.06-23.32,1.38-36.36,1.38s-25.24-.32-36.48-1.38A161.15,161.15,0,0,1,268,779.6c-5.73,32-5.62,60.54-5.62,73.9v1.91c0,6.89,2.54,45.48,7.63,72.51,2.87,14.53,6.05,25.45,9.55,25.45s5.83-6.36,7.42-16c1.69-10.6,2.54-24.91,3.28-39.65,1.17-21.63,2.44-44,7.95-61.07C303.83,818.93,314,807,333.1,807m0-318.48a57.76,57.76,0,0,1,40.81,16.65,57.2,57.2,0,0,1,0,80.89,58.38,58.38,0,0,1-81.63,0,57.2,57.2,0,0,1,0-80.89,57.76,57.76,0,0,1,40.82-16.65" transform="translate(-200.82 -488.47)"/></g></svg>