<svg width="50" height="30" viewBox="0 0 50 30" fill="none" xmlns="http://www.w3.org/2000/svg">
<path d="M48.6201 6.96897L26.8278 0.273634C25.6403 -0.0912113 24.3591 -0.0912113 23.1724 0.273634L1.3793 6.96897C-0.459767 7.53382 -0.459767 9.96586 1.3793 10.5307L5.17854 11.6979C4.34494 12.7284 3.83244 13.9854 3.78166 15.362C3.02931 15.7932 2.49962 16.5714 2.49962 17.5003C2.49962 18.3425 2.94337 19.0511 3.58244 19.5042L1.5879 28.4792C1.41446 29.2597 2.00821 30.0003 2.80743 30.0003H7.19104C7.99105 30.0003 8.5848 29.2597 8.41136 28.4792L6.41682 19.5042C7.05589 19.0511 7.49964 18.3425 7.49964 17.5003C7.49964 16.5964 6.99417 15.8401 6.2762 15.401C6.33557 14.2276 6.93557 13.1901 7.89261 12.5323L23.1716 17.2268C23.8794 17.444 25.2372 17.7151 26.8271 17.2268L48.6201 10.5315C50.46 9.96586 50.46 7.5346 48.6201 6.96897ZM27.5614 19.6167C25.3325 20.3011 23.4333 19.9229 22.4372 19.6167L11.1075 16.1362L9.99965 25.0003C9.99965 27.762 16.7153 30.0003 24.9997 30.0003C33.2841 30.0003 39.9998 27.762 39.9998 25.0003L38.8919 16.1354L27.5614 19.6167Z" fill="#003F91"/>
</svg>
