<svg width="50" height="46" viewBox="0 0 50 46" fill="none" xmlns="http://www.w3.org/2000/svg">
<path fill-rule="evenodd" clip-rule="evenodd" d="M33.7459 45.369C35.1899 44.8024 37.4435 43.5579 39.0743 42.4266C41.0253 41.0731 43.706 38.4916 45.041 36.6805C47.4388 33.4278 48.6932 30.1194 49.414 25.1463C49.8988 21.8023 49.9332 20.9532 49.978 11.247C50.0255 0.924119 50.0689 1.57207 49.2763 0.754198C48.5116 -0.0351548 48.964 0.000322902 39.649 0.000322329C30.6522 0.000321775 30.9672 -0.0186246 30.2239 0.566537C30.0341 0.715901 29.7601 1.04648 29.615 1.30106L29.3514 1.76407L29.3249 10.5591L29.2983 19.3542L29.5094 19.8604C29.7571 20.4548 30.4371 21.1171 30.9507 21.2644C31.1612 21.3246 32.9157 21.366 35.284 21.3663L39.2634 21.3669L39.2634 22.0006C39.2634 23.4436 38.8648 25.8923 38.3658 27.5148C37.7024 29.6718 36.6902 31.411 35.224 32.913C34.0278 34.1384 32.6427 35.1116 30.6955 36.0949C29.2717 36.8138 29.0581 36.9922 28.6669 37.7895C28.5633 38.0006 28.4942 38.377 28.4908 38.749C28.4859 39.2875 28.551 39.5062 29.0319 40.5685C30.8622 44.6112 31.0119 44.8677 31.7764 45.2702C32.3371 45.5654 33.1422 45.6057 33.7459 45.369ZM4.86782 45.4428C5.40903 45.3397 7.95385 44.0545 9.33187 43.1884C13.5125 40.5606 16.7759 37.04 18.6856 33.0976C20.0819 30.2148 20.7736 27.3027 21.2608 22.2548C21.3902 20.9133 21.4274 18.9076 21.4623 11.3486C21.5107 0.912429 21.5544 1.57328 20.7608 0.754196C19.996 -0.0350557 20.4479 0.000321147 11.1385 0.000320574C2.06461 0.000320016 2.38267 -0.0200417 1.64478 0.607651C1.45123 0.772335 1.17906 1.14282 1.0399 1.43097L0.786977 1.95485L0.789123 10.6782C0.79127 19.2363 0.795079 19.4101 0.990196 19.8551C1.21881 20.3764 1.56754 20.7825 2.0565 21.0968C2.39039 21.3114 2.49527 21.3177 6.59614 21.3669L10.794 21.4173L10.7642 22.2235C10.6871 24.3061 10.2 26.7845 9.52348 28.5353C8.82787 30.3356 7.99477 31.6487 6.73051 32.9376C5.57993 34.1105 4.40522 34.9463 2.56128 35.9038C0.793611 36.8216 0.299565 37.2446 0.0994678 38.0114C-0.137348 38.919 -0.0126312 39.3762 1.15289 41.8767C1.80338 43.2722 2.38062 44.371 2.60327 44.6375C3.1689 45.3144 3.99663 45.6088 4.86782 45.4428Z" fill="#003F91"/>
</svg>
