<svg width="84" height="74" viewBox="0 0 84 74" fill="none" xmlns="http://www.w3.org/2000/svg">
<path d="M28.2989 7.71634C28.3039 6.97016 28.164 6.23031 27.8873 5.53908C27.6105 4.84786 27.2024 4.21881 26.6861 3.68791C26.1698 3.15701 25.5556 2.73468 24.8785 2.44505C24.2014 2.15543 23.4747 2.00419 22.74 2H2V66.0845C2 67.5818 2.58566 69.0179 3.62815 70.0767C4.67064 71.1355 6.08456 71.7303 7.55886 71.7303C9.03316 71.7303 10.4471 71.1355 11.4896 70.0767C12.5321 69.0179 13.1177 67.5818 13.1177 66.0845V29.6845" stroke="white" stroke-width="4"/>
<path d="M2 66.085C2 67.5823 2.58566 69.0184 3.62815 70.0772C4.67064 71.136 6.08456 71.7308 7.55886 71.7308C9.03316 71.7308 10.4471 71.136 11.4896 70.0772C12.5321 69.0184 13.1177 67.5823 13.1177 66.085" stroke="white" stroke-width="4"/>
<path d="M39.1009 12.9647C38.8607 11.6725 38.1854 10.5054 37.1907 9.66355C36.1961 8.8217 34.944 8.35751 33.6493 8.35059H13.1175V66.0843C13.1291 66.8348 12.9942 67.5801 12.7205 68.2773C12.4468 68.9744 12.0396 69.6096 11.5227 70.1459C11.0058 70.6823 10.3893 71.1092 9.70883 71.402C9.02841 71.6949 8.29757 71.8478 7.55859 71.8519H75.9433C76.6823 71.8478 77.4131 71.6949 78.0936 71.402C78.774 71.1092 79.3905 70.6823 79.9074 70.1459C80.4244 69.6096 80.8315 68.9744 81.1052 68.2773C81.379 67.5801 81.5139 66.8348 81.5022 66.0843V12.9647H39.1009Z" stroke="white" stroke-width="4"/>
<path d="M14.4043 64.29H67.9675" stroke="white" stroke-width="4"/>
<path d="M52.2116 28.3602C49.7145 26.889 49.059 26.8375 45.5822 27.7644C45.1227 27.888 44.6551 27.9789 44.1827 28.0366C43.713 27.9777 43.2478 27.8867 42.7905 27.7644C39.3138 26.8375 38.6582 26.8963 36.1612 28.3602C33.9514 29.5299 32.7139 32.8991 33.34 36.6876C34.0766 41.0646 35.7339 41.3736 35.7339 46.1184C35.7339 50.8632 37.406 53.2246 38.7687 53.2246C40.1314 53.2246 40.8165 51.6062 42.3117 47.5676C43.3356 44.7943 44.853 44.3602 46.0389 47.5676C47.5121 51.6062 48.2487 53.2246 49.5819 53.2246C50.9152 53.2246 52.6315 50.8706 52.6315 46.1552C52.6315 41.4398 54.2962 41.1529 55.0254 36.7244C55.6515 32.8991 54.3919 29.5299 52.2116 28.3602Z" stroke="white" stroke-width="4"/>
</svg>
