<svg width="135" height="104" viewBox="0 0 135 104" fill="none" xmlns="http://www.w3.org/2000/svg">
<path d="M123.879 10.3369H10.2842V93.6737H123.879V10.3369Z" stroke="#003F91" stroke-width="4"/>
<path d="M81.8551 29.2006C77.2786 26.525 76.0699 26.4114 69.665 28.1675C68.8167 28.3905 67.9537 28.5528 67.0823 28.6531C66.211 28.5528 65.348 28.3905 64.4997 28.1675C58.0844 26.463 56.8861 26.5766 52.2993 29.2006C48.291 31.3287 45.977 37.4651 47.134 44.4382C48.4563 52.4547 51.5348 53.0126 51.5348 61.6903C51.5348 70.368 54.634 74.6345 57.1547 74.6345C59.6753 74.6345 60.915 71.6799 63.6629 64.3039C65.5431 59.2316 68.3323 58.4258 70.5224 64.3039C73.2704 71.7006 74.5307 74.6345 77.0307 74.6345C79.5307 74.6345 82.6505 70.3266 82.6505 61.6903C82.6505 53.0539 85.7497 52.5374 87.0514 44.4382C88.1877 37.5064 85.8737 31.3287 81.8551 29.2006Z" stroke="#003F91" stroke-width="4"/>
<path d="M123.684 28.1158C120.585 26.5352 118.839 26.6799 113.446 28.1158C112.598 28.3397 111.735 28.502 110.864 28.6014C109.992 28.5011 109.129 28.3388 108.281 28.1158C101.876 26.4113 100.678 26.5249 96.0909 29.1489C92.0723 31.277 89.7582 37.4133 90.9256 44.3865C92.2582 52.403 95.3264 52.9609 95.3264 61.6385C95.3264 70.3162 98.4256 74.5828 100.946 74.5828C103.467 74.5828 104.707 71.6282 107.455 64.2522C109.335 59.1799 112.134 58.3741 114.314 64.2522C117.062 71.6489 118.322 74.5828 120.822 74.5828C121.307 74.5527 121.78 74.4213 122.21 74.1971C122.641 73.9729 123.02 73.6608 123.322 73.2811" stroke="#003F91" stroke-width="4"/>
<path d="M10.3672 72.6613C10.6771 73.2019 11.1097 73.6621 11.63 74.0049C12.1504 74.3476 12.744 74.5633 13.3631 74.6345C15.8631 74.6345 17.1234 71.6799 19.8713 64.3039C21.7515 59.2316 24.5407 58.4258 26.7308 64.3039C29.4788 71.7006 30.7288 74.6345 33.2391 74.6345C35.7494 74.6345 38.8486 70.3266 38.8486 61.6903C38.8486 53.0539 41.9478 52.5374 43.2597 44.4382C44.4064 37.5064 42.0924 31.3287 38.0945 29.2006C33.518 26.525 32.3093 26.4114 25.894 28.1675C25.0495 28.3913 24.1898 28.5536 23.3217 28.6531C22.4504 28.5528 21.5873 28.3905 20.7391 28.1675C15.4602 26.7626 13.7143 26.587 10.6978 28.0746" stroke="#003F91" stroke-width="4"/>
<path d="M16.9062 84.7168H41.7513" stroke="#003F91" stroke-width="4"/>
<path d="M52.5579 84.7168H46.3389" stroke="#003F91" stroke-width="4"/>
<path d="M132.165 2H2V102H132.165V2Z" stroke="#003F91" stroke-width="4"/>
</svg>
