<svg width="17" height="20" viewBox="0 0 17 20" fill="none" xmlns="http://www.w3.org/2000/svg">
<path d="M7.17785 10.0129L0.353749 3.18876C-0.117916 2.71709 -0.117916 1.9544 0.353749 1.48775L1.48775 0.353749C1.95942 -0.117916 2.72211 -0.117916 3.18876 0.353749L8.02584 5.19083L12.8629 0.353749C13.3346 -0.117916 14.0973 -0.117916 14.5639 0.353749L15.708 1.48274C16.1796 1.9544 16.1796 2.71709 15.708 3.18374L8.88387 10.0078C8.41221 10.4845 7.64951 10.4845 7.17785 10.0129V10.0129ZM8.88387 19.6469L15.708 12.8228C16.1796 12.3511 16.1796 11.5884 15.708 11.1218L14.574 9.98777C14.1023 9.5161 13.3396 9.5161 12.873 9.98777L8.03086 14.8198L3.19378 9.98275C2.72211 9.51108 1.95942 9.51108 1.49277 9.98275L0.353749 11.1168C-0.117916 11.5884 -0.117916 12.3511 0.353749 12.8178L7.17785 19.6419C7.64951 20.1185 8.41221 20.1185 8.88387 19.6469Z" fill="white"/>
</svg>
