<svg width="815" height="180" viewBox="0 0 815 180" fill="none" xmlns="http://www.w3.org/2000/svg">
<path d="M0.685476 160.839C0.384614 159.581 0.178772 158.287 0.0759662 156.963L1.07296 156.886C1.02463 156.264 1 155.635 1 155V152.969H0V148.906H1V144.844H0V140.781H1V136.719H0V132.656H1V128.594H0V124.531H1V120.469H0V116.406H1V112.344H0V108.281H1V104.219H0V100.156H1V96.0938H0V92.0312H1V87.9688H0V83.9062H1V79.8438H0V75.7812H1V71.7188H0V67.6562H1V63.5938H0V59.5312H1V55.4688H0V51.4062H1V47.3438H0V43.2812H1V39.2188H0V35.1562H1V31.0938H0V27.0313H1V25C1 24.3651 1.02463 23.7362 1.07296 23.114L0.0759657 23.0366C0.178771 21.7133 0.384612 20.4188 0.685474 19.1613L1.65803 19.394C1.95309 18.1607 2.34339 16.9645 2.82074 15.8134L1.89701 15.4303C2.40134 14.2141 2.9989 13.0464 3.68078 11.936L4.53293 12.4593C5.19245 11.3853 5.93421 10.3671 6.74949 9.41342L5.98939 8.76362C6.84037 7.76817 7.76818 6.84037 8.76362 5.98939L9.41342 6.74949C10.3671 5.93421 11.3853 5.19244 12.4593 4.53292L11.936 3.68077C13.0464 2.9989 14.2141 2.40134 15.4303 1.89701L15.8134 2.82074C16.9645 2.34339 18.1607 1.95309 19.394 1.65803L19.1613 0.685473C20.4188 0.384612 21.7133 0.178772 23.0366 0.0759659L23.114 1.07296C23.7362 1.02463 24.3651 1 25 1H26.9922V0H30.9766V1H34.9609V0H38.9453V1H42.9297V0H46.914V1H50.8985V0H54.8828V1H58.8672V0H62.8516V1H66.8359V0H70.8203V1H74.8047V0H78.7891V1H82.7734V0H86.7578V1H90.7422V0H94.7265V1H98.711V0H102.695V1H106.68V0H110.664V1H114.648V0H118.633V1H122.617V0H126.602V1H130.586V0H134.57V1H138.555V0H142.539V1H146.523V0H150.508V1H154.492V0H158.477V1H162.461V0H166.445V1H170.43V0H174.414V1H178.398V0H182.383V1H186.367V0H190.352V1H194.336V0H198.32V1H202.305V0H206.289V1H210.273V0H214.258V1H218.242V0H222.227V1H226.211V0H230.195V1H234.18V0H238.164V1H242.148V0H246.133V1H250.117V0H254.102V1H258.086V0H262.07V1H266.055V0H270.039V1H274.023V0H278.008V1H281.992V0H285.977V1H289.961V0H293.945V1H297.93V0H301.914V1H305.898V0H309.883V1H313.867V0H317.852V1H321.836V0H325.82V1H329.805V0H333.789V1H337.773V0H341.758V1H345.742V0H349.727V1H353.711V0H357.695V1H361.68V0H365.664V1H369.648V0H373.633V1H377.617V0H381.602V1H385.586V0H389.57V1H393.555V0H397.539V1H401.523V0H405.508V1H409.492V0H413.477V1H417.461V0H421.445V1H425.43V0H429.414V1H433.398V0H437.383V1H441.367V0H445.352V1H449.336V0H453.32V1H457.305V0H461.289V1H465.273V0H469.258V1H473.242V0H477.227V1H481.211V0H485.195V1H489.18V0H493.164V1H497.148V0H501.133V1H505.117V0H509.102V1H513.086V0H517.07V1H521.055V0H525.039V1H529.023V0H533.008V1H536.992V0H540.977V1H544.961V0H548.945V1H552.93V0H556.914V1H560.898V0H564.883V1H568.867V0H572.852V1H576.836V0H580.82V1H584.805V0H588.789V1H592.773V0H596.758V1H600.742V0H604.727V1H608.711V0H612.695V1H616.68V0H620.664V1H624.648V0H628.633V1H632.617V0H636.602V1H640.586V0H644.57V1H648.555V0H652.539V1H656.523V0H660.508V1H664.492V0H668.477V1H672.461V0H676.445V1H680.43V0H684.414V1H688.398V0H692.383V1H696.367V0H700.352V1H704.336V0H708.32V1H712.305V0H716.289V1H720.273V0H724.258V1H728.242V0H732.227V1H736.211V0H740.195V1H744.18V0H748.164V1H752.148V0H756.133V1H760.117V0H764.102V1H768.086V0H772.07V1H776.055V0H780.039V1H784.023V0H788.008V1H790C790.635 1 791.264 1.02463 791.886 1.07296L791.963 0.0759683C793.287 0.178775 794.581 0.384616 795.839 0.685477L795.606 1.65803C796.839 1.9531 798.036 2.3434 799.187 2.82075L799.57 1.89702C800.786 2.40135 801.954 2.99891 803.064 3.68079L802.541 4.53294C803.615 5.19246 804.633 5.93422 805.587 6.74951L806.236 5.98939C807.232 6.84038 808.16 7.76818 809.011 8.76362L808.25 9.41343C809.066 10.3671 809.808 11.3853 810.467 12.4593L811.319 11.936C812.001 13.0464 812.599 14.2141 813.103 15.4303L812.179 15.8134C812.657 16.9645 813.047 18.1607 813.342 19.394L814.315 19.1613C814.615 20.4188 814.821 21.7133 814.924 23.0366L813.927 23.114C813.975 23.7362 814 24.3651 814 25V27.0313H815V31.0938H814V35.1562H815V39.2188H814V43.2812H815V47.3438H814V51.4062H815V55.4688H814V59.5312H815V63.5938H814V67.6562H815V71.7188H814V75.7812H815V79.8438H814V83.9062H815V87.9688H814V92.0312H815V96.0938H814V100.156H815V104.219H814V108.281H815V112.344H814V116.406H815V120.469H814V124.531H815V128.594H814V132.656H815V136.719H814V140.781H815V144.844H814V148.906H815V152.969H814V155C814 155.635 813.975 156.264 813.927 156.886L814.924 156.963C814.821 158.287 814.615 159.581 814.315 160.839L813.342 160.606C813.047 161.839 812.657 163.036 812.179 164.187L813.103 164.57C812.599 165.786 812.001 166.954 811.319 168.064L810.467 167.541C809.808 168.615 809.066 169.633 808.25 170.587L809.011 171.236C808.16 172.232 807.232 173.16 806.236 174.011L805.587 173.251C804.633 174.066 803.615 174.808 802.541 175.467L803.064 176.319C801.954 177.001 800.786 177.599 799.57 178.103L799.187 177.179C798.036 177.657 796.839 178.047 795.606 178.342L795.839 179.315C794.581 179.615 793.287 179.821 791.963 179.924L791.886 178.927C791.264 178.975 790.635 179 790 179H788.008V180H784.023V179H780.039V180H776.055V179H772.07V180H768.086V179H764.102V180H760.117V179H756.133V180H752.148V179H748.164V180H744.18V179H740.195V180H736.211V179H732.227V180H728.242V179H724.258V180H720.273V179H716.289V180H712.305V179H708.32V180H704.336V179H700.352V180H696.367V179H692.383V180H688.398V179H684.414V180H680.43V179H676.445V180H672.461V179H668.477V180H664.492V179H660.508V180H656.523V179H652.539V180H648.555V179H644.57V180H640.586V179H636.602V180H632.617V179H628.633V180H624.648V179H620.664V180H616.68V179H612.695V180H608.711V179H604.727V180H600.742V179H596.758V180H592.773V179H588.789V180H584.805V179H580.82V180H576.836V179H572.852V180H568.867V179H564.883V180H560.898V179H556.914V180H552.93V179H548.945V180H544.961V179H540.977V180H536.992V179H533.008V180H529.023V179H525.039V180H521.055V179H517.07V180H513.086V179H509.102V180H505.117V179H501.133V180H497.148V179H493.164V180H489.18V179H485.195V180H481.211V179H477.227V180H473.242V179H469.258V180H465.273V179H461.289V180H457.305V179H453.32V180H449.336V179H445.352V180H441.367V179H437.383V180H433.398V179H429.414V180H425.43V179H421.445V180H417.461V179H413.477V180H409.492V179H405.508V180H401.523V179H397.539V180H393.555V179H389.57V180H385.586V179H381.602V180H377.617V179H373.633V180H369.648V179H365.664V180H361.68V179H357.695V180H353.711V179H349.727V180H345.742V179H341.758V180H337.773V179H333.789V180H329.805V179H325.82V180H321.836V179H317.852V180H313.867V179H309.883V180H305.898V179H301.914V180H297.93V179H293.945V180H289.961V179H285.977V180H281.992V179H278.008V180H274.023V179H270.039V180H266.055V179H262.07V180H258.086V179H254.102V180H250.117V179H246.133V180H242.148V179H238.164V180H234.18V179H230.195V180H226.211V179H222.227V180H218.242V179H214.258V180H210.273V179H206.289V180H202.305V179H198.32V180H194.336V179H190.352V180H186.367V179H182.383V180H178.398V179H174.414V180H170.43V179H166.445V180H162.461V179H158.477V180H154.492V179H150.508V180H146.523V179H142.539V180H138.555V179H134.57V180H130.586V179H126.602V180H122.617V179H118.633V180H114.648V179H110.664V180H106.68V179H102.695V180H98.711V179H94.7266V180H90.7422V179H86.7578V180H82.7735V179H78.7891V180H74.8047V179H70.8203V180H66.836V179H62.8516V180H58.8672V179H54.8828V180H50.8985V179H46.9141V180H42.9297V179H38.9453V180H34.961V179H30.9766V180H26.9922V179H25C24.3651 179 23.7362 178.975 23.1141 178.927L23.0366 179.924C21.7133 179.821 20.4189 179.615 19.1614 179.315L19.3941 178.342C18.1608 178.047 16.9645 177.657 15.8134 177.179L15.4303 178.103C14.2142 177.599 13.0464 177.001 11.936 176.319L12.4593 175.467C11.3853 174.808 10.3671 174.066 9.41343 173.251L8.76363 174.011C7.76819 173.16 6.84039 172.232 5.9894 171.236L6.74951 170.587C5.93422 169.633 5.19246 168.615 4.53293 167.541L3.68078 168.064C2.99891 166.954 2.40135 165.786 1.89702 164.57L2.82074 164.187C2.3434 163.036 1.9531 161.839 1.65803 160.606L0.685476 160.839Z" stroke="#D9D9D9" stroke-width="2" stroke-dasharray="4 4"/>
<path d="M378 150H438V90H378V150ZM433.556 132.798L418.087 117.329L424.559 110.857L433.556 119.852V132.798ZM382.444 94.4444H433.556V113.567L424.56 104.571L414.944 114.186L401.056 100.298L382.444 118.909V94.4444ZM382.444 125.194L401.056 106.583L433.556 139.083V145.556H382.444V125.194Z" fill="#D9D9D9"/>
<path d="M183.568 55H177.918V37.5455H183.747C185.457 37.5455 186.926 37.8949 188.153 38.5938C189.381 39.2869 190.321 40.2841 190.974 41.5852C191.634 42.8807 191.963 44.4347 191.963 46.2472C191.963 48.0653 191.631 49.6278 190.966 50.9347C190.307 52.2415 189.352 53.2472 188.102 53.9517C186.852 54.6506 185.341 55 183.568 55ZM180.551 52.6989H183.423C184.753 52.6989 185.858 52.4489 186.739 51.9489C187.619 51.4432 188.278 50.7131 188.716 49.7585C189.153 48.7983 189.372 47.6278 189.372 46.2472C189.372 44.8778 189.153 43.7159 188.716 42.7614C188.284 41.8068 187.639 41.0824 186.781 40.5881C185.923 40.0937 184.858 39.8466 183.585 39.8466H180.551V52.6989ZM195.033 55V41.9091H197.496V43.9886H197.633C197.871 43.2841 198.292 42.7301 198.894 42.3267C199.502 41.9176 200.19 41.7131 200.957 41.7131C201.116 41.7131 201.303 41.7187 201.519 41.7301C201.741 41.7415 201.914 41.7557 202.039 41.7727V44.2102C201.937 44.1818 201.755 44.1506 201.494 44.1165C201.232 44.0767 200.971 44.0568 200.71 44.0568C200.107 44.0568 199.57 44.1847 199.099 44.4403C198.633 44.6903 198.263 45.0398 197.991 45.4886C197.718 45.9318 197.582 46.4375 197.582 47.0057V55H195.033ZM209.29 55.2642C208.063 55.2642 206.991 54.983 206.077 54.4205C205.162 53.858 204.452 53.071 203.946 52.0597C203.44 51.0483 203.188 49.8665 203.188 48.5142C203.188 47.1562 203.44 45.9687 203.946 44.9517C204.452 43.9347 205.162 43.1449 206.077 42.5824C206.991 42.0199 208.063 41.7386 209.29 41.7386C210.517 41.7386 211.588 42.0199 212.503 42.5824C213.418 43.1449 214.128 43.9347 214.634 44.9517C215.139 45.9687 215.392 47.1562 215.392 48.5142C215.392 49.8665 215.139 51.0483 214.634 52.0597C214.128 53.071 213.418 53.858 212.503 54.4205C211.588 54.983 210.517 55.2642 209.29 55.2642ZM209.298 53.125C210.094 53.125 210.753 52.9148 211.276 52.4943C211.798 52.0739 212.185 51.5142 212.435 50.8153C212.69 50.1165 212.818 49.3466 212.818 48.5057C212.818 47.6705 212.69 46.9034 212.435 46.2045C212.185 45.5 211.798 44.9347 211.276 44.5085C210.753 44.0824 210.094 43.8693 209.298 43.8693C208.497 43.8693 207.832 44.0824 207.304 44.5085C206.781 44.9347 206.392 45.5 206.136 46.2045C205.886 46.9034 205.761 47.6705 205.761 48.5057C205.761 49.3466 205.886 50.1165 206.136 50.8153C206.392 51.5142 206.781 52.0739 207.304 52.4943C207.832 52.9148 208.497 53.125 209.298 53.125ZM218.237 59.9091V41.9091H220.725V44.0312H220.938C221.086 43.7585 221.299 43.4432 221.577 43.0852C221.856 42.7273 222.242 42.4148 222.737 42.1477C223.231 41.875 223.884 41.7386 224.697 41.7386C225.754 41.7386 226.697 42.0057 227.526 42.5398C228.356 43.0739 229.006 43.8437 229.478 44.8494C229.955 45.8551 230.194 47.0653 230.194 48.4801C230.194 49.8949 229.958 51.108 229.487 52.1193C229.015 53.125 228.367 53.9006 227.543 54.446C226.719 54.9858 225.779 55.2557 224.722 55.2557C223.927 55.2557 223.276 55.1222 222.771 54.8551C222.271 54.5881 221.879 54.2756 221.594 53.9176C221.31 53.5597 221.092 53.2415 220.938 52.9631H220.785V59.9091H218.237ZM220.734 48.4545C220.734 49.375 220.867 50.1818 221.134 50.875C221.401 51.5682 221.788 52.1108 222.293 52.5028C222.799 52.8892 223.418 53.0824 224.151 53.0824C224.913 53.0824 225.549 52.8807 226.06 52.4773C226.572 52.0682 226.958 51.5142 227.219 50.8153C227.487 50.1165 227.62 49.3295 227.62 48.4545C227.62 47.5909 227.489 46.8153 227.228 46.1278C226.972 45.4403 226.586 44.8977 226.069 44.5C225.558 44.1023 224.918 43.9034 224.151 43.9034C223.413 43.9034 222.788 44.0937 222.276 44.4744C221.771 44.8551 221.387 45.3864 221.126 46.0682C220.864 46.75 220.734 47.5455 220.734 48.4545ZM241.011 59.9091C240.631 59.9091 240.284 59.8778 239.972 59.8153C239.659 59.7585 239.426 59.696 239.273 59.6278L239.886 57.5398C240.352 57.6648 240.767 57.7188 241.131 57.7017C241.494 57.6847 241.815 57.5483 242.094 57.2926C242.378 57.0369 242.628 56.6193 242.844 56.0398L243.159 55.1705L238.369 41.9091H241.097L244.412 52.0682H244.548L247.864 41.9091H250.599L245.205 56.7472C244.955 57.429 244.636 58.0057 244.25 58.4773C243.864 58.9545 243.403 59.3125 242.869 59.5511C242.335 59.7898 241.716 59.9091 241.011 59.9091ZM258.063 55.2642C256.836 55.2642 255.765 54.983 254.85 54.4205C253.935 53.858 253.225 53.071 252.719 52.0597C252.214 51.0483 251.961 49.8665 251.961 48.5142C251.961 47.1562 252.214 45.9687 252.719 44.9517C253.225 43.9347 253.935 43.1449 254.85 42.5824C255.765 42.0199 256.836 41.7386 258.063 41.7386C259.29 41.7386 260.362 42.0199 261.276 42.5824C262.191 43.1449 262.901 43.9347 263.407 44.9517C263.913 45.9687 264.165 47.1562 264.165 48.5142C264.165 49.8665 263.913 51.0483 263.407 52.0597C262.901 53.071 262.191 53.858 261.276 54.4205C260.362 54.983 259.29 55.2642 258.063 55.2642ZM258.072 53.125C258.867 53.125 259.526 52.9148 260.049 52.4943C260.572 52.0739 260.958 51.5142 261.208 50.8153C261.464 50.1165 261.592 49.3466 261.592 48.5057C261.592 47.6705 261.464 46.9034 261.208 46.2045C260.958 45.5 260.572 44.9347 260.049 44.5085C259.526 44.0824 258.867 43.8693 258.072 43.8693C257.271 43.8693 256.606 44.0824 256.077 44.5085C255.555 44.9347 255.165 45.5 254.91 46.2045C254.66 46.9034 254.535 47.6705 254.535 48.5057C254.535 49.3466 254.66 50.1165 254.91 50.8153C255.165 51.5142 255.555 52.0739 256.077 52.4943C256.606 52.9148 257.271 53.125 258.072 53.125ZM275.303 49.571V41.9091H277.859V55H275.354V52.733H275.217C274.916 53.4318 274.433 54.0142 273.768 54.4801C273.109 54.9403 272.288 55.1705 271.305 55.1705C270.464 55.1705 269.72 54.9858 269.072 54.6165C268.43 54.2415 267.925 53.6875 267.555 52.9545C267.192 52.2216 267.01 51.3153 267.01 50.2358V41.9091H269.558V49.929C269.558 50.821 269.805 51.5312 270.3 52.0597C270.794 52.5881 271.436 52.8523 272.226 52.8523C272.703 52.8523 273.178 52.733 273.649 52.4943C274.126 52.2557 274.521 51.8949 274.834 51.4119C275.152 50.929 275.308 50.3153 275.303 49.571ZM281.283 55V41.9091H283.746V43.9886H283.883C284.121 43.2841 284.542 42.7301 285.144 42.3267C285.752 41.9176 286.44 41.7131 287.207 41.7131C287.366 41.7131 287.553 41.7187 287.769 41.7301C287.991 41.7415 288.164 41.7557 288.289 41.7727V44.2102C288.187 44.1818 288.005 44.1506 287.744 44.1165C287.482 44.0767 287.221 44.0568 286.96 44.0568C286.357 44.0568 285.82 44.1847 285.349 44.4403C284.883 44.6903 284.513 45.0398 284.241 45.4886C283.968 45.9318 283.832 46.4375 283.832 47.0057V55H281.283ZM296.846 55V41.9091H299.292V44.0398H299.454C299.727 43.3182 300.173 42.7557 300.792 42.3523C301.411 41.9432 302.153 41.7386 303.016 41.7386C303.891 41.7386 304.624 41.9432 305.215 42.3523C305.812 42.7614 306.252 43.3239 306.536 44.0398H306.673C306.985 43.3409 307.482 42.7841 308.164 42.3693C308.846 41.9489 309.658 41.7386 310.602 41.7386C311.789 41.7386 312.758 42.1108 313.508 42.8551C314.263 43.5994 314.641 44.7216 314.641 46.2216V55H312.093V46.4602C312.093 45.5739 311.852 44.9318 311.369 44.5341C310.886 44.1364 310.309 43.9375 309.638 43.9375C308.809 43.9375 308.164 44.1932 307.704 44.7045C307.244 45.2102 307.013 45.8608 307.013 46.6562V55H304.474V46.2983C304.474 45.5881 304.252 45.017 303.809 44.5852C303.366 44.1534 302.789 43.9375 302.079 43.9375C301.596 43.9375 301.15 44.0653 300.741 44.321C300.337 44.571 300.011 44.9205 299.761 45.3693C299.516 45.8182 299.394 46.3381 299.394 46.929V55H296.846ZM323.699 55.2642C322.409 55.2642 321.298 54.9886 320.366 54.4375C319.44 53.8807 318.724 53.0994 318.219 52.0938C317.719 51.0824 317.469 49.8977 317.469 48.5398C317.469 47.1989 317.719 46.017 318.219 44.9943C318.724 43.9716 319.429 43.1733 320.332 42.5994C321.241 42.0256 322.304 41.7386 323.52 41.7386C324.259 41.7386 324.974 41.8608 325.668 42.1051C326.361 42.3494 326.983 42.733 327.534 43.2557C328.085 43.7784 328.52 44.4574 328.838 45.2926C329.156 46.1222 329.315 47.1307 329.315 48.3182V49.2216H318.909V47.3125H326.818C326.818 46.642 326.682 46.0483 326.409 45.5312C326.136 45.0085 325.753 44.5966 325.259 44.2955C324.77 43.9943 324.196 43.8438 323.537 43.8438C322.821 43.8438 322.196 44.0199 321.662 44.3722C321.134 44.7187 320.724 45.1733 320.435 45.7358C320.151 46.2926 320.009 46.8977 320.009 47.5511V49.0426C320.009 49.9176 320.162 50.6619 320.469 51.2756C320.781 51.8892 321.216 52.358 321.773 52.6818C322.33 53 322.98 53.1591 323.724 53.1591C324.207 53.1591 324.648 53.0909 325.045 52.9545C325.443 52.8125 325.787 52.6023 326.077 52.3239C326.366 52.0455 326.588 51.7017 326.741 51.2926L329.153 51.7273C328.96 52.4375 328.614 53.0597 328.114 53.5938C327.619 54.1222 326.997 54.5341 326.247 54.8295C325.503 55.1193 324.653 55.2642 323.699 55.2642ZM337.043 55.2557C335.987 55.2557 335.043 54.9858 334.214 54.446C333.39 53.9006 332.742 53.125 332.271 52.1193C331.805 51.108 331.572 49.8949 331.572 48.4801C331.572 47.0653 331.808 45.8551 332.279 44.8494C332.756 43.8437 333.41 43.0739 334.239 42.5398C335.069 42.0057 336.009 41.7386 337.06 41.7386C337.873 41.7386 338.526 41.875 339.021 42.1477C339.521 42.4148 339.907 42.7273 340.18 43.0852C340.458 43.4432 340.674 43.7585 340.827 44.0312H340.981V37.5455H343.529V55H341.04V52.9631H340.827C340.674 53.2415 340.452 53.5597 340.163 53.9176C339.879 54.2756 339.487 54.5881 338.987 54.8551C338.487 55.1222 337.839 55.2557 337.043 55.2557ZM337.606 53.0824C338.339 53.0824 338.958 52.8892 339.464 52.5028C339.975 52.1108 340.362 51.5682 340.623 50.875C340.89 50.1818 341.023 49.375 341.023 48.4545C341.023 47.5455 340.893 46.75 340.631 46.0682C340.37 45.3864 339.987 44.8551 339.481 44.4744C338.975 44.0937 338.35 43.9034 337.606 43.9034C336.839 43.9034 336.2 44.1023 335.688 44.5C335.177 44.8977 334.79 45.4403 334.529 46.1278C334.273 46.8153 334.146 47.5909 334.146 48.4545C334.146 49.3295 334.276 50.1165 334.538 50.8153C334.799 51.5142 335.185 52.0682 335.697 52.4773C336.214 52.8807 336.85 53.0824 337.606 53.0824ZM347.166 55V41.9091H349.714V55H347.166ZM348.453 39.8892C348.01 39.8892 347.629 39.7415 347.311 39.446C346.999 39.1449 346.842 38.7869 346.842 38.3722C346.842 37.9517 346.999 37.5937 347.311 37.2983C347.629 36.9972 348.01 36.8466 348.453 36.8466C348.896 36.8466 349.274 36.9972 349.587 37.2983C349.905 37.5937 350.064 37.9517 350.064 38.3722C350.064 38.7869 349.905 39.1449 349.587 39.446C349.274 39.7415 348.896 39.8892 348.453 39.8892ZM356.952 55.2898C356.123 55.2898 355.373 55.1364 354.702 54.8295C354.032 54.517 353.501 54.0653 353.109 53.4744C352.722 52.8835 352.529 52.1591 352.529 51.3011C352.529 50.5625 352.671 49.9545 352.955 49.4773C353.239 49 353.623 48.6222 354.106 48.3438C354.589 48.0653 355.129 47.8551 355.725 47.7131C356.322 47.571 356.93 47.4631 357.549 47.3892C358.333 47.2983 358.969 47.2244 359.458 47.1676C359.947 47.1051 360.302 47.0057 360.523 46.8693C360.745 46.733 360.856 46.5114 360.856 46.2045V46.1449C360.856 45.4006 360.646 44.8239 360.225 44.4148C359.81 44.0057 359.191 43.8011 358.367 43.8011C357.509 43.8011 356.833 43.9915 356.339 44.3722C355.85 44.7472 355.512 45.1648 355.325 45.625L352.93 45.0795C353.214 44.2841 353.629 43.642 354.174 43.1534C354.725 42.6591 355.359 42.3011 356.075 42.0795C356.79 41.8523 357.543 41.7386 358.333 41.7386C358.856 41.7386 359.41 41.8011 359.995 41.9261C360.586 42.0455 361.137 42.267 361.648 42.5909C362.165 42.9148 362.589 43.3778 362.918 43.9801C363.248 44.5767 363.413 45.3523 363.413 46.3068V55H360.924V53.2102H360.822C360.657 53.5398 360.41 53.8636 360.08 54.1818C359.751 54.5 359.327 54.7642 358.81 54.9744C358.293 55.1847 357.674 55.2898 356.952 55.2898ZM357.506 53.2443C358.211 53.2443 358.813 53.1051 359.313 52.8267C359.819 52.5483 360.202 52.1847 360.464 51.7358C360.731 51.2812 360.864 50.7955 360.864 50.2784V48.5909C360.773 48.6818 360.597 48.767 360.336 48.8466C360.08 48.9205 359.788 48.9858 359.458 49.0426C359.129 49.0937 358.808 49.142 358.495 49.1875C358.183 49.2273 357.921 49.2614 357.711 49.2898C357.217 49.3523 356.765 49.4574 356.356 49.6051C355.952 49.7528 355.629 49.9659 355.384 50.2443C355.146 50.517 355.026 50.8807 355.026 51.3352C355.026 51.9659 355.259 52.4432 355.725 52.767C356.191 53.0852 356.785 53.2443 357.506 53.2443ZM379.388 41.9091V43.9545H371.991V41.9091H379.388ZM374.019 55V40.392C374.019 39.5739 374.198 38.8949 374.556 38.3551C374.914 37.8097 375.388 37.4034 375.979 37.1364C376.57 36.8636 377.212 36.7273 377.906 36.7273C378.417 36.7273 378.854 36.7699 379.218 36.8551C379.582 36.9347 379.852 37.0085 380.028 37.0767L379.431 39.1392C379.312 39.1051 379.158 39.0653 378.971 39.0199C378.783 38.9687 378.556 38.9432 378.289 38.9432C377.67 38.9432 377.227 39.0966 376.96 39.4034C376.698 39.7102 376.567 40.1534 376.567 40.733V55H374.019ZM382.018 55V41.9091H384.566V55H382.018ZM383.305 39.8892C382.862 39.8892 382.481 39.7415 382.163 39.446C381.85 39.1449 381.694 38.7869 381.694 38.3722C381.694 37.9517 381.85 37.5937 382.163 37.2983C382.481 36.9972 382.862 36.8466 383.305 36.8466C383.748 36.8466 384.126 36.9972 384.438 37.2983C384.756 37.5937 384.915 37.9517 384.915 38.3722C384.915 38.7869 384.756 39.1449 384.438 39.446C384.126 39.7415 383.748 39.8892 383.305 39.8892ZM390.543 37.5455V55H387.994V37.5455H390.543ZM399.613 55.2642C398.323 55.2642 397.212 54.9886 396.281 54.4375C395.354 53.8807 394.638 53.0994 394.133 52.0938C393.633 51.0824 393.383 49.8977 393.383 48.5398C393.383 47.1989 393.633 46.017 394.133 44.9943C394.638 43.9716 395.343 43.1733 396.246 42.5994C397.156 42.0256 398.218 41.7386 399.434 41.7386C400.173 41.7386 400.888 41.8608 401.582 42.1051C402.275 42.3494 402.897 42.733 403.448 43.2557C403.999 43.7784 404.434 44.4574 404.752 45.2926C405.07 46.1222 405.229 47.1307 405.229 48.3182V49.2216H394.823V47.3125H402.732C402.732 46.642 402.596 46.0483 402.323 45.5312C402.05 45.0085 401.667 44.5966 401.173 44.2955C400.684 43.9943 400.11 43.8438 399.451 43.8438C398.735 43.8438 398.11 44.0199 397.576 44.3722C397.048 44.7187 396.638 45.1733 396.349 45.7358C396.065 46.2926 395.923 46.8977 395.923 47.5511V49.0426C395.923 49.9176 396.076 50.6619 396.383 51.2756C396.695 51.8892 397.13 52.358 397.687 52.6818C398.244 53 398.894 53.1591 399.638 53.1591C400.121 53.1591 400.562 53.0909 400.96 52.9545C401.357 52.8125 401.701 52.6023 401.991 52.3239C402.281 52.0455 402.502 51.7017 402.656 51.2926L405.067 51.7273C404.874 52.4375 404.528 53.0597 404.028 53.5938C403.533 54.1222 402.911 54.5341 402.161 54.8295C401.417 55.1193 400.567 55.2642 399.613 55.2642ZM416.957 47.2273V55H414.408V37.5455H416.923V44.0398H417.085C417.391 43.3352 417.86 42.7756 418.491 42.3608C419.121 41.946 419.945 41.7386 420.962 41.7386C421.86 41.7386 422.644 41.9233 423.315 42.2926C423.991 42.6619 424.513 43.2131 424.883 43.946C425.258 44.6733 425.445 45.5824 425.445 46.6733V55H422.897V46.9801C422.897 46.0199 422.65 45.2756 422.156 44.7472C421.661 44.2131 420.974 43.946 420.093 43.946C419.491 43.946 418.951 44.0739 418.474 44.3295C418.002 44.5852 417.63 44.9602 417.357 45.4545C417.09 45.9432 416.957 46.5341 416.957 47.2273ZM434.488 55.2642C433.198 55.2642 432.087 54.9886 431.156 54.4375C430.229 53.8807 429.513 53.0994 429.008 52.0938C428.508 51.0824 428.258 49.8977 428.258 48.5398C428.258 47.1989 428.508 46.017 429.008 44.9943C429.513 43.9716 430.218 43.1733 431.121 42.5994C432.031 42.0256 433.093 41.7386 434.309 41.7386C435.048 41.7386 435.763 41.8608 436.457 42.1051C437.15 42.3494 437.772 42.733 438.323 43.2557C438.874 43.7784 439.309 44.4574 439.627 45.2926C439.945 46.1222 440.104 47.1307 440.104 48.3182V49.2216H429.698V47.3125H437.607C437.607 46.642 437.471 46.0483 437.198 45.5312C436.925 45.0085 436.542 44.5966 436.048 44.2955C435.559 43.9943 434.985 43.8438 434.326 43.8438C433.61 43.8438 432.985 44.0199 432.451 44.3722C431.923 44.7187 431.513 45.1733 431.224 45.7358C430.94 46.2926 430.798 46.8977 430.798 47.5511V49.0426C430.798 49.9176 430.951 50.6619 431.258 51.2756C431.57 51.8892 432.005 52.358 432.562 52.6818C433.119 53 433.769 53.1591 434.513 53.1591C434.996 53.1591 435.437 53.0909 435.835 52.9545C436.232 52.8125 436.576 52.6023 436.866 52.3239C437.156 52.0455 437.377 51.7017 437.531 51.2926L439.942 51.7273C439.749 52.4375 439.403 53.0597 438.903 53.5938C438.408 54.1222 437.786 54.5341 437.036 54.8295C436.292 55.1193 435.442 55.2642 434.488 55.2642ZM442.932 55V41.9091H445.395V43.9886H445.531C445.77 43.2841 446.19 42.7301 446.793 42.3267C447.401 41.9176 448.088 41.7131 448.855 41.7131C449.014 41.7131 449.202 41.7187 449.418 41.7301C449.639 41.7415 449.812 41.7557 449.938 41.7727V44.2102C449.835 44.1818 449.653 44.1506 449.392 44.1165C449.131 44.0767 448.869 44.0568 448.608 44.0568C448.006 44.0568 447.469 44.1847 446.997 44.4403C446.531 44.6903 446.162 45.0398 445.889 45.4886C445.616 45.9318 445.48 46.4375 445.48 47.0057V55H442.932ZM457.316 55.2642C456.026 55.2642 454.915 54.9886 453.984 54.4375C453.058 53.8807 452.342 53.0994 451.836 52.0938C451.336 51.0824 451.086 49.8977 451.086 48.5398C451.086 47.1989 451.336 46.017 451.836 44.9943C452.342 43.9716 453.046 43.1733 453.95 42.5994C454.859 42.0256 455.921 41.7386 457.137 41.7386C457.876 41.7386 458.592 41.8608 459.285 42.1051C459.978 42.3494 460.6 42.733 461.151 43.2557C461.702 43.7784 462.137 44.4574 462.455 45.2926C462.773 46.1222 462.933 47.1307 462.933 48.3182V49.2216H452.526V47.3125H460.435C460.435 46.642 460.299 46.0483 460.026 45.5312C459.754 45.0085 459.37 44.5966 458.876 44.2955C458.387 43.9943 457.813 43.8438 457.154 43.8438C456.438 43.8438 455.813 44.0199 455.279 44.3722C454.751 44.7187 454.342 45.1733 454.052 45.7358C453.768 46.2926 453.626 46.8977 453.626 47.5511V49.0426C453.626 49.9176 453.779 50.6619 454.086 51.2756C454.398 51.8892 454.833 52.358 455.39 52.6818C455.947 53 456.597 53.1591 457.342 53.1591C457.825 53.1591 458.265 53.0909 458.663 52.9545C459.06 52.8125 459.404 52.6023 459.694 52.3239C459.984 52.0455 460.205 51.7017 460.359 51.2926L462.771 51.7273C462.577 52.4375 462.231 53.0597 461.731 53.5938C461.237 54.1222 460.614 54.5341 459.864 54.8295C459.12 55.1193 458.271 55.2642 457.316 55.2642ZM477.626 55.2642C476.398 55.2642 475.327 54.983 474.413 54.4205C473.498 53.858 472.788 53.071 472.282 52.0597C471.776 51.0483 471.523 49.8665 471.523 48.5142C471.523 47.1562 471.776 45.9687 472.282 44.9517C472.788 43.9347 473.498 43.1449 474.413 42.5824C475.327 42.0199 476.398 41.7386 477.626 41.7386C478.853 41.7386 479.924 42.0199 480.839 42.5824C481.754 43.1449 482.464 43.9347 482.969 44.9517C483.475 45.9687 483.728 47.1562 483.728 48.5142C483.728 49.8665 483.475 51.0483 482.969 52.0597C482.464 53.071 481.754 53.858 480.839 54.4205C479.924 54.983 478.853 55.2642 477.626 55.2642ZM477.634 53.125C478.43 53.125 479.089 52.9148 479.612 52.4943C480.134 52.0739 480.521 51.5142 480.771 50.8153C481.026 50.1165 481.154 49.3466 481.154 48.5057C481.154 47.6705 481.026 46.9034 480.771 46.2045C480.521 45.5 480.134 44.9347 479.612 44.5085C479.089 44.0824 478.43 43.8693 477.634 43.8693C476.833 43.8693 476.168 44.0824 475.64 44.5085C475.117 44.9347 474.728 45.5 474.472 46.2045C474.222 46.9034 474.097 47.6705 474.097 48.5057C474.097 49.3466 474.222 50.1165 474.472 50.8153C474.728 51.5142 475.117 52.0739 475.64 52.4943C476.168 52.9148 476.833 53.125 477.634 53.125ZM486.572 55V41.9091H489.036V43.9886H489.172C489.411 43.2841 489.831 42.7301 490.433 42.3267C491.041 41.9176 491.729 41.7131 492.496 41.7131C492.655 41.7131 492.842 41.7187 493.058 41.7301C493.28 41.7415 493.453 41.7557 493.578 41.7727V44.2102C493.476 44.1818 493.294 44.1506 493.033 44.1165C492.771 44.0767 492.51 44.0568 492.249 44.0568C491.646 44.0568 491.109 44.1847 490.638 44.4403C490.172 44.6903 489.803 45.0398 489.53 45.4886C489.257 45.9318 489.121 46.4375 489.121 47.0057V55H486.572ZM502.339 55V37.5455H504.888V44.0312H505.041C505.189 43.7585 505.402 43.4432 505.68 43.0852C505.959 42.7273 506.345 42.4148 506.839 42.1477C507.334 41.875 507.987 41.7386 508.8 41.7386C509.857 41.7386 510.8 42.0057 511.629 42.5398C512.459 43.0739 513.109 43.8437 513.581 44.8494C514.058 45.8551 514.297 47.0653 514.297 48.4801C514.297 49.8949 514.061 51.108 513.589 52.1193C513.118 53.125 512.47 53.9006 511.646 54.446C510.822 54.9858 509.882 55.2557 508.825 55.2557C508.03 55.2557 507.379 55.1222 506.874 54.8551C506.374 54.5881 505.982 54.2756 505.697 53.9176C505.413 53.5597 505.195 53.2415 505.041 52.9631H504.828V55H502.339ZM504.837 48.4545C504.837 49.375 504.97 50.1818 505.237 50.875C505.504 51.5682 505.891 52.1108 506.396 52.5028C506.902 52.8892 507.521 53.0824 508.254 53.0824C509.016 53.0824 509.652 52.8807 510.163 52.4773C510.675 52.0682 511.061 51.5142 511.322 50.8153C511.589 50.1165 511.723 49.3295 511.723 48.4545C511.723 47.5909 511.592 46.8153 511.331 46.1278C511.075 45.4403 510.689 44.8977 510.172 44.5C509.661 44.1023 509.021 43.9034 508.254 43.9034C507.516 43.9034 506.891 44.0937 506.379 44.4744C505.874 44.8551 505.49 45.3864 505.229 46.0682C504.967 46.75 504.837 47.5455 504.837 48.4545ZM517.158 55V41.9091H519.621V43.9886H519.758C519.996 43.2841 520.417 42.7301 521.019 42.3267C521.627 41.9176 522.315 41.7131 523.082 41.7131C523.241 41.7131 523.428 41.7187 523.644 41.7301C523.866 41.7415 524.039 41.7557 524.164 41.7727V44.2102C524.062 44.1818 523.88 44.1506 523.619 44.1165C523.357 44.0767 523.096 44.0568 522.835 44.0568C522.232 44.0568 521.695 44.1847 521.224 44.4403C520.758 44.6903 520.388 45.0398 520.116 45.4886C519.843 45.9318 519.707 46.4375 519.707 47.0057V55H517.158ZM531.415 55.2642C530.188 55.2642 529.116 54.983 528.202 54.4205C527.287 53.858 526.577 53.071 526.071 52.0597C525.565 51.0483 525.312 49.8665 525.312 48.5142C525.312 47.1562 525.565 45.9687 526.071 44.9517C526.577 43.9347 527.287 43.1449 528.202 42.5824C529.116 42.0199 530.188 41.7386 531.415 41.7386C532.642 41.7386 533.713 42.0199 534.628 42.5824C535.543 43.1449 536.253 43.9347 536.759 44.9517C537.264 45.9687 537.517 47.1562 537.517 48.5142C537.517 49.8665 537.264 51.0483 536.759 52.0597C536.253 53.071 535.543 53.858 534.628 54.4205C533.713 54.983 532.642 55.2642 531.415 55.2642ZM531.423 53.125C532.219 53.125 532.878 52.9148 533.401 52.4943C533.923 52.0739 534.31 51.5142 534.56 50.8153C534.815 50.1165 534.943 49.3466 534.943 48.5057C534.943 47.6705 534.815 46.9034 534.56 46.2045C534.31 45.5 533.923 44.9347 533.401 44.5085C532.878 44.0824 532.219 43.8693 531.423 43.8693C530.622 43.8693 529.957 44.0824 529.429 44.5085C528.906 44.9347 528.517 45.5 528.261 46.2045C528.011 46.9034 527.886 47.6705 527.886 48.5057C527.886 49.3466 528.011 50.1165 528.261 50.8153C528.517 51.5142 528.906 52.0739 529.429 52.4943C529.957 52.9148 530.622 53.125 531.423 53.125ZM542.801 55L538.949 41.9091H541.582L544.148 51.5227H544.276L546.849 41.9091H549.483L552.04 51.4801H552.168L554.716 41.9091H557.349L553.506 55H550.906L548.247 45.5483H548.051L545.392 55H542.801ZM569.577 45.1051L567.268 45.5142C567.171 45.2187 567.018 44.9375 566.808 44.6705C566.603 44.4034 566.325 44.1847 565.972 44.0142C565.62 43.8437 565.18 43.7585 564.651 43.7585C563.93 43.7585 563.327 43.9205 562.844 44.2443C562.362 44.5625 562.12 44.9744 562.12 45.4801C562.12 45.9176 562.282 46.2699 562.606 46.5369C562.93 46.804 563.452 47.0227 564.174 47.1932L566.254 47.6705C567.458 47.9489 568.356 48.3778 568.947 48.9574C569.538 49.5369 569.833 50.2898 569.833 51.2159C569.833 52 569.606 52.6989 569.151 53.3125C568.702 53.9205 568.075 54.3977 567.268 54.7443C566.467 55.0909 565.538 55.2642 564.481 55.2642C563.015 55.2642 561.819 54.9517 560.893 54.3267C559.967 53.696 559.398 52.8011 559.188 51.642L561.651 51.267C561.805 51.9091 562.12 52.3949 562.597 52.7244C563.075 53.0483 563.697 53.2102 564.464 53.2102C565.299 53.2102 565.967 53.0369 566.467 52.6903C566.967 52.3381 567.217 51.9091 567.217 51.4034C567.217 50.9943 567.063 50.6506 566.756 50.3722C566.455 50.0937 565.992 49.8835 565.367 49.7415L563.151 49.2557C561.93 48.9773 561.026 48.5341 560.441 47.9261C559.862 47.3182 559.572 46.5483 559.572 45.6165C559.572 44.8437 559.788 44.1676 560.219 43.5881C560.651 43.0085 561.248 42.5568 562.009 42.233C562.771 41.9034 563.643 41.7386 564.626 41.7386C566.04 41.7386 567.154 42.0455 567.967 42.6591C568.779 43.267 569.316 44.0824 569.577 45.1051ZM578.277 55.2642C576.987 55.2642 575.876 54.9886 574.945 54.4375C574.018 53.8807 573.303 53.0994 572.797 52.0938C572.297 51.0824 572.047 49.8977 572.047 48.5398C572.047 47.1989 572.297 46.017 572.797 44.9943C573.303 43.9716 574.007 43.1733 574.911 42.5994C575.82 42.0256 576.882 41.7386 578.098 41.7386C578.837 41.7386 579.553 41.8608 580.246 42.1051C580.939 42.3494 581.561 42.733 582.112 43.2557C582.663 43.7784 583.098 44.4574 583.416 45.2926C583.734 46.1222 583.893 47.1307 583.893 48.3182V49.2216H573.487V47.3125H581.396C581.396 46.642 581.26 46.0483 580.987 45.5312C580.714 45.0085 580.331 44.5966 579.837 44.2955C579.348 43.9943 578.774 43.8438 578.115 43.8438C577.399 43.8438 576.774 44.0199 576.24 44.3722C575.712 44.7187 575.303 45.1733 575.013 45.7358C574.729 46.2926 574.587 46.8977 574.587 47.5511V49.0426C574.587 49.9176 574.74 50.6619 575.047 51.2756C575.359 51.8892 575.794 52.358 576.351 52.6818C576.908 53 577.558 53.1591 578.303 53.1591C578.786 53.1591 579.226 53.0909 579.624 52.9545C580.021 52.8125 580.365 52.6023 580.655 52.3239C580.945 52.0455 581.166 51.7017 581.32 51.2926L583.732 51.7273C583.538 52.4375 583.192 53.0597 582.692 53.5938C582.197 54.1222 581.575 54.5341 580.825 54.8295C580.081 55.1193 579.232 55.2642 578.277 55.2642ZM599.303 41.9091V43.9545H591.905V41.9091H599.303ZM593.933 55V40.392C593.933 39.5739 594.112 38.8949 594.47 38.3551C594.828 37.8097 595.303 37.4034 595.893 37.1364C596.484 36.8636 597.126 36.7273 597.82 36.7273C598.331 36.7273 598.768 36.7699 599.132 36.8551C599.496 36.9347 599.766 37.0085 599.942 37.0767L599.345 39.1392C599.226 39.1051 599.072 39.0653 598.885 39.0199C598.697 38.9687 598.47 38.9432 598.203 38.9432C597.584 38.9432 597.141 39.0966 596.874 39.4034C596.612 39.7102 596.482 40.1534 596.482 40.733V55H593.933ZM601.932 55V41.9091H604.48V55H601.932ZM603.219 39.8892C602.776 39.8892 602.395 39.7415 602.077 39.446C601.764 39.1449 601.608 38.7869 601.608 38.3722C601.608 37.9517 601.764 37.5937 602.077 37.2983C602.395 36.9972 602.776 36.8466 603.219 36.8466C603.662 36.8466 604.04 36.9972 604.352 37.2983C604.67 37.5937 604.83 37.9517 604.83 38.3722C604.83 38.7869 604.67 39.1449 604.352 39.446C604.04 39.7415 603.662 39.8892 603.219 39.8892ZM610.457 37.5455V55H607.908V37.5455H610.457ZM619.527 55.2642C618.237 55.2642 617.126 54.9886 616.195 54.4375C615.268 53.8807 614.553 53.0994 614.047 52.0938C613.547 51.0824 613.297 49.8977 613.297 48.5398C613.297 47.1989 613.547 46.017 614.047 44.9943C614.553 43.9716 615.257 43.1733 616.161 42.5994C617.07 42.0256 618.132 41.7386 619.348 41.7386C620.087 41.7386 620.803 41.8608 621.496 42.1051C622.189 42.3494 622.811 42.733 623.362 43.2557C623.913 43.7784 624.348 44.4574 624.666 45.2926C624.984 46.1222 625.143 47.1307 625.143 48.3182V49.2216H614.737V47.3125H622.646C622.646 46.642 622.51 46.0483 622.237 45.5312C621.964 45.0085 621.581 44.5966 621.087 44.2955C620.598 43.9943 620.024 43.8438 619.365 43.8438C618.649 43.8438 618.024 44.0199 617.49 44.3722C616.962 44.7187 616.553 45.1733 616.263 45.7358C615.979 46.2926 615.837 46.8977 615.837 47.5511V49.0426C615.837 49.9176 615.99 50.6619 616.297 51.2756C616.609 51.8892 617.044 52.358 617.601 52.6818C618.158 53 618.808 53.1591 619.553 53.1591C620.036 53.1591 620.476 53.0909 620.874 52.9545C621.271 52.8125 621.615 52.6023 621.905 52.3239C622.195 52.0455 622.416 51.7017 622.57 51.2926L624.982 51.7273C624.788 52.4375 624.442 53.0597 623.942 53.5938C623.447 54.1222 622.825 54.5341 622.075 54.8295C621.331 55.1193 620.482 55.2642 619.527 55.2642ZM637.781 45.1051L635.471 45.5142C635.374 45.2187 635.221 44.9375 635.011 44.6705C634.806 44.4034 634.528 44.1847 634.175 44.0142C633.823 43.8437 633.383 43.7585 632.854 43.7585C632.133 43.7585 631.531 43.9205 631.048 44.2443C630.565 44.5625 630.323 44.9744 630.323 45.4801C630.323 45.9176 630.485 46.2699 630.809 46.5369C631.133 46.804 631.656 47.0227 632.377 47.1932L634.457 47.6705C635.661 47.9489 636.559 48.3778 637.15 48.9574C637.741 49.5369 638.036 50.2898 638.036 51.2159C638.036 52 637.809 52.6989 637.354 53.3125C636.906 53.9205 636.278 54.3977 635.471 54.7443C634.67 55.0909 633.741 55.2642 632.684 55.2642C631.218 55.2642 630.022 54.9517 629.096 54.3267C628.17 53.696 627.602 52.8011 627.391 51.642L629.854 51.267C630.008 51.9091 630.323 52.3949 630.8 52.7244C631.278 53.0483 631.9 53.2102 632.667 53.2102C633.502 53.2102 634.17 53.0369 634.67 52.6903C635.17 52.3381 635.42 51.9091 635.42 51.4034C635.42 50.9943 635.266 50.6506 634.96 50.3722C634.658 50.0937 634.195 49.8835 633.57 49.7415L631.354 49.2557C630.133 48.9773 629.229 48.5341 628.644 47.9261C628.065 47.3182 627.775 46.5483 627.775 45.6165C627.775 44.8437 627.991 44.1676 628.423 43.5881C628.854 43.0085 629.451 42.5568 630.212 42.233C630.974 41.9034 631.846 41.7386 632.829 41.7386C634.244 41.7386 635.357 42.0455 636.17 42.6591C636.982 43.267 637.519 44.0824 637.781 45.1051Z" fill="#D9D9D9"/>
<path d="M500.422 59.7727H639.119V61.4091H500.422V59.7727Z" fill="#D9D9D9"/>
</svg>
