<svg width="100" height="100" viewBox="0 0 100 100" fill="none" xmlns="http://www.w3.org/2000/svg">
<path d="M89.2857 0H10.7143C7.87268 0 5.14746 1.12882 3.13814 3.13814C1.12882 5.14746 0 7.87268 0 10.7143L0 89.2857C0 92.1273 1.12882 94.8525 3.13814 96.8619C5.14746 98.8712 7.87268 100 10.7143 100H41.3504V66.0022H27.2879V50H41.3504V37.8036C41.3504 23.9308 49.6094 16.2679 62.2589 16.2679C68.317 16.2679 74.6518 17.3482 74.6518 17.3482V30.9643H67.6719C60.7946 30.9643 58.6496 35.2321 58.6496 39.6094V50H74.0022L71.5469 66.0022H58.6496V100H89.2857C92.1273 100 94.8525 98.8712 96.8619 96.8619C98.8712 94.8525 100 92.1273 100 89.2857V10.7143C100 7.87268 98.8712 5.14746 96.8619 3.13814C94.8525 1.12882 92.1273 0 89.2857 0V0Z" fill="white"/>
</svg>
