<svg width="27" height="36" viewBox="0 0 27 36" fill="none" xmlns="http://www.w3.org/2000/svg">
<path d="M13.4996 8.90625C12.5898 8.90625 11.7005 9.17603 10.944 9.68148C10.1876 10.1869 9.59797 10.9054 9.24981 11.7459C8.90165 12.5864 8.81056 13.5113 8.98805 14.4036C9.16554 15.2959 9.60364 16.1156 10.247 16.7589C10.8903 17.4022 11.7099 17.8403 12.6022 18.0178C13.4945 18.1953 14.4194 18.1042 15.26 17.756C16.1005 17.4079 16.8189 16.8183 17.3244 16.0618C17.8298 15.3054 18.0996 14.416 18.0996 13.5062C18.0982 12.2867 17.6131 11.1174 16.7508 10.2551C15.8884 9.39272 14.7192 8.90764 13.4996 8.90625ZM13.4996 15.8062C13.0447 15.8062 12.6001 15.6713 12.2218 15.4186C11.8436 15.1659 11.5488 14.8067 11.3747 14.3864C11.2006 13.9661 11.1551 13.5037 11.2438 13.0575C11.3326 12.6114 11.5516 12.2015 11.8733 11.8799C12.195 11.5582 12.6048 11.3392 13.0509 11.2504C13.4971 11.1617 13.9595 11.2072 14.3798 11.3813C14.8001 11.5554 15.1593 11.8502 15.412 12.2284C15.6647 12.6066 15.7996 13.0513 15.7996 13.5062C15.7989 14.116 15.5564 14.7006 15.1252 15.1318C14.694 15.563 14.1094 15.8055 13.4996 15.8062Z" fill="#003F91" stroke="#003F91"/>
<path d="M22.3387 4.66022C20.1532 2.47526 17.2358 1.17731 14.1496 1.01687C11.0634 0.856427 8.02711 1.84487 5.62682 3.79142C3.22652 5.73797 1.63235 8.50464 1.15198 11.5575C0.671604 14.6103 1.33908 17.7328 3.02559 20.3225L11.7157 33.6633C11.9091 33.9602 12.1735 34.2041 12.485 34.3729C12.7965 34.5417 13.1452 34.6301 13.4995 34.6301C13.8538 34.6301 14.2024 34.5417 14.5139 34.3729C14.8254 34.2041 15.0898 33.9602 15.2832 33.6633L23.9736 20.3225C25.5385 17.9202 26.2301 15.053 25.9324 12.2015C25.6348 9.35003 24.366 6.6875 22.3387 4.66022ZM22.0465 19.067L13.4995 32.1877L4.9524 19.067C2.33617 15.0508 2.89729 9.67598 6.28661 6.28652C7.23381 5.3393 8.35831 4.58791 9.5959 4.07527C10.8335 3.56264 12.1599 3.29879 13.4995 3.29879C14.8391 3.29879 16.1655 3.56264 17.4031 4.07527C18.6407 4.58791 19.7652 5.3393 20.7124 6.28652C24.1017 9.67598 24.6628 15.0508 22.0465 19.067Z" fill="#003F91" stroke="#003F91"/>
</svg>
