<svg width="36" height="69" viewBox="0 0 36 69" fill="none" xmlns="http://www.w3.org/2000/svg">
<path d="M17.9993 3.26094C17.0784 3.24942 16.175 3.52366 15.4049 4.04858C14.6348 4.57349 14.033 5.32518 13.6765 6.20747C13.32 7.08976 13.225 8.06249 13.4036 9.00119C13.5823 9.93988 14.0266 10.8018 14.6795 11.4767C15.5667 12.3768 16.7593 12.8777 17.9993 12.871C19.2379 12.8721 20.4282 12.372 21.3178 11.4767C22.1781 10.5664 22.66 9.34167 22.66 8.06598C22.66 6.79029 22.1781 5.56556 21.3178 4.65522C20.4318 3.75417 19.2392 3.25307 17.9993 3.26094ZM21.2171 22.7356C22.7945 24.0825 24.1667 25.6696 25.2869 27.4431C26.4608 29.3379 27.4238 31.365 28.1576 33.4854C28.3604 34.0511 28.5482 34.6393 28.7211 35.2092C28.8504 35.6744 28.9811 36.1241 29.1104 36.5893C30.1353 35.8088 30.9425 34.7595 31.5346 33.337C32.1838 31.7928 32.5731 29.8286 32.7324 27.3243C32.8916 24.6376 31.6353 23.2475 30.2823 22.5278C29.3814 22.0633 28.3994 21.793 27.3953 21.733H27.2511C26.0956 21.7289 24.942 21.8292 23.8033 22.0328C22.9235 22.192 22.0583 22.4286 21.2171 22.7399M6.14376 39.9449C6.02806 39.8856 5.92734 39.8035 5.82525 39.7498L5.35021 39.4359C3.77672 38.3569 2.53536 36.8905 1.64109 34.9236C0.746813 32.9566 0.211882 30.5399 0.0240436 27.5025C-0.465969 19.5412 6.67733 18.5938 8.36515 18.4764C8.53938 18.4764 8.63738 18.4623 8.69727 18.4623H8.72994C10.4479 18.4488 12.1617 18.6386 13.8383 19.0279C15.2769 19.3664 16.6721 19.8795 17.9953 20.5565C19.3179 19.8793 20.7127 19.3662 22.1508 19.0279C23.8224 18.6386 25.5312 18.4488 27.2442 18.4623H27.3028C27.3599 18.4623 27.4756 18.4764 27.6349 18.4764C29.3091 18.5966 36.466 19.5412 35.976 27.5025C35.7882 30.5456 35.2396 32.9735 34.359 34.9236C33.4783 36.8736 32.2233 38.3569 30.6498 39.4359C30.4984 39.5515 30.3397 39.6564 30.1748 39.7498C30.0727 39.8106 29.9584 39.8912 29.8563 39.9449C30.8241 45.1473 30.8091 49.8096 30.8091 51.7737L30.8241 51.8798C30.8241 54.008 30.5791 60.1394 29.2356 64.4269C28.4189 67.0514 27.1585 69 25.2883 69C21.2321 69 20.9585 63.6774 20.6699 58.0253L20.6549 58.0112C20.5392 55.6073 20.4099 53.1383 20.0057 51.2646C19.645 49.4956 19.0393 48.2951 18.0007 48.2951C16.9621 48.2951 16.3551 49.4942 15.9794 51.2646C15.5901 53.1383 15.4594 55.6271 15.3301 58.0253C15.1858 60.8139 15.0416 63.4978 14.4495 65.52C13.8438 67.6199 12.7617 68.9986 10.7131 68.9986C8.82249 68.9986 7.58249 67.05 6.759 64.4255C5.43052 60.138 5.20048 54.0065 5.20048 51.8784V51.6252C5.20048 49.5861 5.20048 45.0286 6.13831 39.9464M14.768 22.7356C13.9327 22.4246 13.0734 22.1881 12.1995 22.0286C11.0533 21.8263 9.89252 21.727 8.72994 21.7316H8.59382C7.59491 21.794 6.61824 22.0643 5.7218 22.5263C4.36066 23.2461 3.09615 24.6404 3.27174 27.3229C3.41602 29.8272 3.8162 31.7914 4.45457 33.3355C5.06028 34.7595 5.86881 35.8088 6.89375 36.5879C7.00945 36.1227 7.13875 35.673 7.28304 35.2078C7.4559 34.6422 7.64374 34.0539 7.84655 33.484C8.57406 31.3606 9.53793 29.3327 10.7186 27.4417C11.829 25.6651 13.1967 24.0773 14.7734 22.7342M26.207 37.9808C26.0773 37.4416 25.933 36.9169 25.7742 36.4069C25.6013 35.8074 25.4135 35.2078 25.1971 34.6082C24.491 32.5593 23.531 30.6146 22.3414 28.8232C21.1743 27.0759 19.7013 25.5721 17.9993 24.3901C16.2958 25.5728 14.8219 27.0782 13.6546 28.8275C12.4644 30.6194 11.5035 32.5645 10.7962 34.6139C10.5947 35.2134 10.3878 35.813 10.219 36.4126C10.0747 36.9231 9.93047 37.4477 9.80116 37.9865C10.9544 38.3065 12.1321 38.5222 13.3211 38.6313C14.8756 38.7836 16.4366 38.8539 17.998 38.842C19.5589 38.8539 21.1194 38.7836 22.6735 38.6313C23.8624 38.521 25.04 38.3052 26.1934 37.9865M17.9993 45.0356C20.5964 45.0356 21.9671 46.7325 22.7457 49.234C23.497 51.6479 23.6549 54.8111 23.8142 57.8698C23.9299 59.9542 24.0306 61.9706 24.2756 63.4766C24.492 64.8412 24.7955 65.7391 25.2869 65.7391C25.7483 65.7391 26.1948 64.1837 26.5854 62.1403C27.2919 58.3223 27.6526 52.8611 27.6526 51.8868V51.7666C27.6526 49.9524 27.6526 45.8148 26.859 41.1611C25.5778 41.511 24.2691 41.742 22.9485 41.8511C21.4335 42.001 19.7743 42.0463 17.9993 42.0463C16.2244 42.0463 14.5638 42.001 13.0339 41.8511C11.718 41.7433 10.4142 41.5124 9.13828 41.1611C8.35834 45.6861 8.37332 49.7219 8.37332 51.6111V51.8812C8.37332 52.8555 8.71905 58.3124 9.41187 62.1347C9.80252 64.1893 10.2354 65.7335 10.7118 65.7335C11.1882 65.7335 11.5053 64.8341 11.7217 63.471C11.9518 61.972 12.0675 59.9485 12.1682 57.8641C12.3274 54.8055 12.5003 51.6422 13.2503 49.2284C14.0153 46.7226 15.3996 45.0356 17.9993 45.0356ZM17.9993 7.43352e-05C20.0777 -0.00875915 22.0749 0.837762 23.5542 2.35452C25.0142 3.87139 25.8344 5.92865 25.8344 8.07375C25.8344 10.2189 25.0142 12.2761 23.5542 13.793C22.0694 15.3013 20.0753 16.1458 17.9987 16.1458C15.922 16.1458 13.9279 15.3013 12.4431 13.793C10.9832 12.2761 10.163 10.2189 10.163 8.07375C10.163 5.92865 10.9832 3.87139 12.4431 2.35452C13.9227 0.837415 15.9205 -0.0091335 17.9993 7.43352e-05Z" fill="#5DA9E9"/>
</svg>
