<svg width="180" height="69" viewBox="0 0 180 69" fill="none" xmlns="http://www.w3.org/2000/svg">
<path d="M47.517 35V17.5455H51.2074V31.9574H58.6903V35H47.517ZM66.768 35.2557C65.4214 35.2557 64.2623 34.983 63.2907 34.4375C62.3248 33.8864 61.5805 33.108 61.0577 32.1023C60.535 31.0909 60.2736 29.8949 60.2736 28.5142C60.2736 27.1676 60.535 25.9858 61.0577 24.9688C61.5805 23.9517 62.3163 23.1591 63.2651 22.5909C64.2197 22.0227 65.339 21.7386 66.6231 21.7386C67.4867 21.7386 68.2907 21.8778 69.035 22.1562C69.785 22.429 70.4384 22.8409 70.9952 23.392C71.5577 23.9432 71.9952 24.6364 72.3077 25.4716C72.6202 26.3011 72.7765 27.2727 72.7765 28.3864V29.3835H61.7225V27.1335H69.3589C69.3589 26.6108 69.2452 26.1477 69.018 25.7443C68.7907 25.3409 68.4753 25.0256 68.0719 24.7983C67.6742 24.5653 67.2111 24.4489 66.6827 24.4489C66.1316 24.4489 65.643 24.5767 65.2168 24.8324C64.7964 25.0824 64.4668 25.4205 64.2282 25.8466C63.9896 26.267 63.8674 26.7358 63.8617 27.2528V29.392C63.8617 30.0398 63.981 30.5994 64.2197 31.071C64.464 31.5426 64.8077 31.9062 65.2509 32.1619C65.6941 32.4176 66.2197 32.5455 66.8276 32.5455C67.231 32.5455 67.6003 32.4886 67.9356 32.375C68.2708 32.2614 68.5577 32.0909 68.7964 31.8636C69.035 31.6364 69.2168 31.358 69.3418 31.0284L72.6998 31.25C72.5293 32.0568 72.1799 32.7614 71.6515 33.3636C71.1288 33.9602 70.4526 34.4261 69.6231 34.7614C68.7992 35.0909 67.8475 35.2557 66.768 35.2557ZM78.5125 27.4318V35H74.8818V17.5455H78.4102V24.2188H78.5636C78.8591 23.446 79.3363 22.8409 79.9954 22.4034C80.6545 21.9602 81.4812 21.7386 82.4756 21.7386C83.3846 21.7386 84.1773 21.9375 84.8534 22.3352C85.5352 22.7273 86.0636 23.2926 86.4386 24.0312C86.8193 24.7642 87.0068 25.642 87.0011 26.6648V35H83.3704V27.3125C83.3761 26.5057 83.1716 25.8778 82.7568 25.429C82.3477 24.9801 81.7738 24.7557 81.0352 24.7557C80.5409 24.7557 80.1034 24.8608 79.7227 25.071C79.3477 25.2812 79.0523 25.5881 78.8363 25.9915C78.6261 26.3892 78.5182 26.8693 78.5125 27.4318ZM95.5091 35.2557C94.1853 35.2557 93.0404 34.9744 92.0745 34.4119C91.1143 33.8437 90.3728 33.054 89.85 32.0426C89.3273 31.0256 89.066 29.8466 89.066 28.5057C89.066 27.1534 89.3273 25.9716 89.85 24.9602C90.3728 23.9432 91.1143 23.1534 92.0745 22.5909C93.0404 22.0227 94.1853 21.7386 95.5091 21.7386C96.833 21.7386 97.975 22.0227 98.9353 22.5909C99.9012 23.1534 100.646 23.9432 101.168 24.9602C101.691 25.9716 101.952 27.1534 101.952 28.5057C101.952 29.8466 101.691 31.0256 101.168 32.0426C100.646 33.054 99.9012 33.8437 98.9353 34.4119C97.975 34.9744 96.833 35.2557 95.5091 35.2557ZM95.5262 32.4432C96.1285 32.4432 96.6313 32.2727 97.0347 31.9318C97.4381 31.5852 97.7421 31.1136 97.9466 30.517C98.1569 29.9205 98.262 29.2415 98.262 28.4801C98.262 27.7188 98.1569 27.0398 97.9466 26.4432C97.7421 25.8466 97.4381 25.375 97.0347 25.0284C96.6313 24.6818 96.1285 24.5085 95.5262 24.5085C94.9182 24.5085 94.4069 24.6818 93.9921 25.0284C93.583 25.375 93.2733 25.8466 93.0631 26.4432C92.8586 27.0398 92.7563 27.7188 92.7563 28.4801C92.7563 29.2415 92.8586 29.9205 93.0631 30.517C93.2733 31.1136 93.583 31.5852 93.9921 31.9318C94.4069 32.2727 94.9182 32.4432 95.5262 32.4432ZM109.964 35.2557C108.623 35.2557 107.47 34.9716 106.504 34.4034C105.543 33.8295 104.805 33.0341 104.288 32.017C103.776 31 103.521 29.8295 103.521 28.5057C103.521 27.1648 103.779 25.9886 104.296 24.9773C104.819 23.9602 105.56 23.1676 106.521 22.5994C107.481 22.0256 108.623 21.7386 109.947 21.7386C111.089 21.7386 112.089 21.946 112.947 22.3608C113.805 22.7756 114.484 23.358 114.984 24.108C115.484 24.858 115.759 25.7386 115.81 26.75H112.384C112.288 26.0966 112.032 25.571 111.617 25.1733C111.208 24.7699 110.671 24.5682 110.007 24.5682C109.444 24.5682 108.953 24.7216 108.532 25.0284C108.117 25.3295 107.793 25.7699 107.56 26.3494C107.328 26.929 107.211 27.6307 107.211 28.4545C107.211 29.2898 107.325 30 107.552 30.5852C107.785 31.1705 108.112 31.6165 108.532 31.9233C108.953 32.2301 109.444 32.3835 110.007 32.3835C110.421 32.3835 110.793 32.2983 111.123 32.1278C111.458 31.9574 111.734 31.7102 111.95 31.3864C112.171 31.0568 112.316 30.6619 112.384 30.2017H115.81C115.754 31.2017 115.481 32.0824 114.992 32.8438C114.509 33.5994 113.842 34.1903 112.989 34.6165C112.137 35.0426 111.129 35.2557 109.964 35.2557ZM117.803 35V32.8352L124.212 24.9006V24.8068H118.024V21.9091H128.584V24.2699L122.567 32.0085V32.1023H128.806V35H117.803ZM134.608 31.233L134.616 26.8778H135.145L139.338 21.9091H143.505L137.872 28.4886H137.011L134.608 31.233ZM131.318 35V17.5455H134.949V35H131.318ZM139.5 35L135.648 29.2983L138.068 26.733L143.753 35H139.5ZM147.475 39.9091C147.015 39.9091 146.583 39.8722 146.18 39.7983C145.782 39.7301 145.452 39.642 145.191 39.5341L146.009 36.8239C146.435 36.9545 146.819 37.0256 147.16 37.0369C147.506 37.0483 147.805 36.9688 148.055 36.7983C148.31 36.6278 148.518 36.3381 148.677 35.929L148.89 35.375L144.194 21.9091H148.012L150.722 31.5227H150.859L153.594 21.9091H157.438L152.35 36.4148C152.106 37.1193 151.773 37.733 151.353 38.2557C150.938 38.7841 150.413 39.1903 149.776 39.4744C149.14 39.7642 148.373 39.9091 147.475 39.9091ZM53.7045 60H47.517V42.5455H53.7557C55.5114 42.5455 57.0227 42.8949 58.2898 43.5938C59.5568 44.2869 60.5313 45.2841 61.2131 46.5852C61.9006 47.8864 62.2443 49.4432 62.2443 51.2557C62.2443 53.0739 61.9006 54.6364 61.2131 55.9432C60.5313 57.25 59.5511 58.2528 58.2727 58.9517C57 59.6506 55.4773 60 53.7045 60ZM51.2074 56.8381H53.5511C54.642 56.8381 55.5597 56.6449 56.304 56.2585C57.054 55.8665 57.6165 55.2614 57.9915 54.4432C58.3722 53.6193 58.5625 52.5568 58.5625 51.2557C58.5625 49.9659 58.3722 48.9119 57.9915 48.0938C57.6165 47.2756 57.0568 46.6733 56.3125 46.2869C55.5682 45.9006 54.6506 45.7074 53.5597 45.7074H51.2074V56.8381ZM70.6117 60.2557C69.2651 60.2557 68.106 59.983 67.1344 59.4375C66.1685 58.8864 65.4242 58.108 64.9015 57.1023C64.3788 56.0909 64.1174 54.8949 64.1174 53.5142C64.1174 52.1676 64.3788 50.9858 64.9015 49.9688C65.4242 48.9517 66.16 48.1591 67.1089 47.5909C68.0634 47.0227 69.1827 46.7386 70.4668 46.7386C71.3305 46.7386 72.1344 46.8778 72.8788 47.1562C73.6288 47.429 74.2822 47.8409 74.839 48.392C75.4015 48.9432 75.839 49.6364 76.1515 50.4716C76.464 51.3011 76.6202 52.2727 76.6202 53.3864V54.3835H65.5663V52.1335H73.2026C73.2026 51.6108 73.089 51.1477 72.8617 50.7443C72.6344 50.3409 72.3191 50.0256 71.9157 49.7983C71.518 49.5653 71.0549 49.4489 70.5265 49.4489C69.9753 49.4489 69.4867 49.5767 69.0606 49.8324C68.6401 50.0824 68.3106 50.4205 68.0719 50.8466C67.8333 51.267 67.7111 51.7358 67.7055 52.2528V54.392C67.7055 55.0398 67.8248 55.5994 68.0634 56.071C68.3077 56.5426 68.6515 56.9062 69.0947 57.1619C69.5378 57.4176 70.0634 57.5455 70.6714 57.5455C71.0748 57.5455 71.4441 57.4886 71.7793 57.375C72.1146 57.2614 72.4015 57.0909 72.6401 56.8636C72.8788 56.6364 73.0606 56.358 73.1856 56.0284L76.5435 56.25C76.3731 57.0568 76.0236 57.7614 75.4952 58.3636C74.9725 58.9602 74.2964 59.4261 73.4668 59.7614C72.643 60.0909 71.6913 60.2557 70.6117 60.2557ZM82.3562 52.4318V60H78.7256V46.9091H82.1858V49.2188H82.3392C82.629 48.4574 83.1148 47.8551 83.7966 47.4119C84.4784 46.9631 85.3051 46.7386 86.2767 46.7386C87.1858 46.7386 87.9784 46.9375 88.6545 47.3352C89.3307 47.733 89.8562 48.3011 90.2312 49.0398C90.6062 49.7727 90.7937 50.6477 90.7937 51.6648V60H87.1631V52.3125C87.1687 51.5114 86.9642 50.8864 86.5494 50.4375C86.1346 49.983 85.5636 49.7557 84.8363 49.7557C84.3477 49.7557 83.9159 49.8608 83.5409 50.071C83.1716 50.2812 82.8818 50.5881 82.6716 50.9915C82.467 51.3892 82.3619 51.8693 82.3562 52.4318ZM100.354 46.9091V49.6364H92.4708V46.9091H100.354ZM94.2606 43.7727H97.8912V55.9773C97.8912 56.3125 97.9424 56.5739 98.0446 56.7614C98.1469 56.9432 98.289 57.071 98.4708 57.1449C98.6583 57.2187 98.8742 57.2557 99.1185 57.2557C99.289 57.2557 99.4594 57.2415 99.6299 57.2131C99.8003 57.179 99.931 57.1534 100.022 57.1364L100.593 59.8381C100.411 59.8949 100.155 59.9602 99.8259 60.0341C99.4964 60.1136 99.0958 60.1619 98.6242 60.179C97.7492 60.2131 96.9821 60.0966 96.3231 59.8295C95.6696 59.5625 95.1611 59.1477 94.7975 58.5852C94.4339 58.0227 94.2549 57.3125 94.2606 56.4545V43.7727ZM106.188 60.2472C105.353 60.2472 104.609 60.1023 103.955 59.8125C103.302 59.517 102.785 59.0824 102.404 58.5085C102.029 57.929 101.842 57.2074 101.842 56.3438C101.842 55.6165 101.975 55.0057 102.242 54.5114C102.509 54.017 102.873 53.6193 103.333 53.3182C103.793 53.017 104.316 52.7898 104.901 52.6364C105.492 52.483 106.112 52.375 106.759 52.3125C107.521 52.233 108.134 52.1591 108.6 52.0909C109.066 52.017 109.404 51.9091 109.614 51.767C109.825 51.625 109.93 51.4148 109.93 51.1364V51.0852C109.93 50.5455 109.759 50.1278 109.418 49.8324C109.083 49.5369 108.606 49.3892 107.987 49.3892C107.333 49.3892 106.813 49.5341 106.427 49.8239C106.041 50.108 105.785 50.4659 105.66 50.8977L102.302 50.625C102.472 49.8295 102.808 49.142 103.308 48.5625C103.808 47.9773 104.453 47.5284 105.242 47.2159C106.038 46.8977 106.958 46.7386 108.004 46.7386C108.731 46.7386 109.427 46.8239 110.092 46.9943C110.762 47.1648 111.356 47.429 111.873 47.7869C112.396 48.1449 112.808 48.6051 113.109 49.1676C113.41 49.7244 113.56 50.392 113.56 51.1705V60H110.117V58.1847H110.015C109.805 58.5938 109.524 58.9545 109.171 59.267C108.819 59.5739 108.396 59.8153 107.901 59.9915C107.407 60.1619 106.836 60.2472 106.188 60.2472ZM107.228 57.7415C107.762 57.7415 108.234 57.6364 108.643 57.4261C109.052 57.2102 109.373 56.9205 109.606 56.5568C109.839 56.1932 109.955 55.7812 109.955 55.321V53.9318C109.842 54.0057 109.685 54.0739 109.487 54.1364C109.293 54.1932 109.075 54.2472 108.83 54.2983C108.586 54.3437 108.342 54.3864 108.097 54.4261C107.853 54.4602 107.632 54.4915 107.433 54.5199C107.007 54.5824 106.634 54.6818 106.316 54.8182C105.998 54.9545 105.751 55.1392 105.575 55.3722C105.399 55.5994 105.31 55.8835 105.31 56.2244C105.31 56.7188 105.489 57.0966 105.847 57.358C106.211 57.6136 106.671 57.7415 107.228 57.7415ZM119.744 42.5455V60H116.113V42.5455H119.744Z" fill="#003F91"/>
<path d="M17.9993 3.26094C17.0784 3.24942 16.175 3.52366 15.4049 4.04858C14.6348 4.57349 14.033 5.32518 13.6765 6.20747C13.32 7.08976 13.225 8.06249 13.4036 9.00119C13.5823 9.93988 14.0266 10.8018 14.6795 11.4767C15.5667 12.3768 16.7593 12.8777 17.9993 12.871C19.2379 12.8721 20.4282 12.372 21.3178 11.4767C22.1781 10.5664 22.66 9.34167 22.66 8.06598C22.66 6.79029 22.1781 5.56556 21.3178 4.65522C20.4318 3.75417 19.2392 3.25307 17.9993 3.26094ZM21.2171 22.7356C22.7945 24.0825 24.1667 25.6696 25.2869 27.4431C26.4608 29.3379 27.4238 31.365 28.1576 33.4854C28.3604 34.0511 28.5482 34.6393 28.7211 35.2092C28.8504 35.6744 28.9811 36.1241 29.1104 36.5893C30.1353 35.8088 30.9425 34.7595 31.5346 33.337C32.1838 31.7928 32.5731 29.8286 32.7324 27.3243C32.8916 24.6376 31.6353 23.2475 30.2823 22.5278C29.3814 22.0633 28.3994 21.793 27.3953 21.733H27.2511C26.0956 21.7289 24.942 21.8292 23.8033 22.0328C22.9235 22.192 22.0583 22.4286 21.2171 22.7399M6.14376 39.9449C6.02806 39.8856 5.92734 39.8035 5.82525 39.7498L5.35021 39.4359C3.77672 38.3569 2.53536 36.8905 1.64109 34.9236C0.746813 32.9566 0.211882 30.5399 0.0240436 27.5025C-0.465969 19.5412 6.67733 18.5938 8.36515 18.4764C8.53938 18.4764 8.63738 18.4623 8.69727 18.4623H8.72994C10.4479 18.4488 12.1617 18.6386 13.8383 19.0279C15.2769 19.3664 16.6721 19.8795 17.9953 20.5565C19.3179 19.8793 20.7127 19.3662 22.1508 19.0279C23.8224 18.6386 25.5312 18.4488 27.2442 18.4623H27.3028C27.3599 18.4623 27.4756 18.4764 27.6349 18.4764C29.3091 18.5966 36.466 19.5412 35.976 27.5025C35.7882 30.5456 35.2396 32.9735 34.359 34.9236C33.4783 36.8736 32.2233 38.3569 30.6498 39.4359C30.4984 39.5515 30.3397 39.6564 30.1748 39.7498C30.0727 39.8106 29.9584 39.8912 29.8563 39.9449C30.8241 45.1473 30.8091 49.8096 30.8091 51.7737L30.8241 51.8798C30.8241 54.008 30.5791 60.1394 29.2356 64.4269C28.4189 67.0514 27.1585 69 25.2883 69C21.2321 69 20.9585 63.6774 20.6699 58.0253L20.6549 58.0112C20.5392 55.6073 20.4099 53.1383 20.0057 51.2646C19.645 49.4956 19.0393 48.2951 18.0007 48.2951C16.9621 48.2951 16.3551 49.4942 15.9794 51.2646C15.5901 53.1383 15.4594 55.6271 15.3301 58.0253C15.1859 60.8139 15.0416 63.4978 14.4495 65.52C13.8438 67.6199 12.7617 68.9986 10.7131 68.9986C8.82249 68.9986 7.58249 67.05 6.759 64.4255C5.43052 60.138 5.20048 54.0065 5.20048 51.8784V51.6252C5.20048 49.5861 5.20048 45.0286 6.13831 39.9464M14.768 22.7356C13.9327 22.4246 13.0734 22.1881 12.1995 22.0286C11.0533 21.8263 9.89252 21.727 8.72994 21.7316H8.59382C7.59491 21.794 6.61824 22.0643 5.7218 22.5263C4.36066 23.2461 3.09615 24.6404 3.27174 27.3229C3.41602 29.8272 3.8162 31.7914 4.45457 33.3355C5.06028 34.7595 5.86881 35.8088 6.89375 36.5879C7.00945 36.1227 7.13875 35.673 7.28304 35.2078C7.4559 34.6422 7.64374 34.0539 7.84655 33.484C8.57406 31.3606 9.53793 29.3327 10.7186 27.4417C11.829 25.6651 13.1967 24.0773 14.7734 22.7342M26.2071 37.9808C26.0773 37.4416 25.933 36.9169 25.7742 36.4069C25.6013 35.8074 25.4135 35.2078 25.1971 34.6082C24.491 32.5593 23.531 30.6146 22.3414 28.8232C21.1743 27.0759 19.7013 25.5721 17.9993 24.3901C16.2958 25.5728 14.8219 27.0782 13.6546 28.8275C12.4644 30.6194 11.5035 32.5645 10.7962 34.6139C10.5947 35.2134 10.3878 35.813 10.219 36.4126C10.0747 36.9231 9.93047 37.4477 9.80116 37.9865C10.9544 38.3065 12.1321 38.5222 13.3211 38.6313C14.8756 38.7836 16.4366 38.8539 17.998 38.842C19.5589 38.8539 21.1194 38.7836 22.6735 38.6313C23.8624 38.521 25.04 38.3052 26.1934 37.9865M17.9993 45.0356C20.5964 45.0356 21.9671 46.7325 22.7457 49.234C23.497 51.6479 23.6549 54.8111 23.8142 57.8698C23.9299 59.9542 24.0306 61.9706 24.2756 63.4766C24.492 64.8412 24.7955 65.7391 25.2869 65.7391C25.7483 65.7391 26.1948 64.1837 26.5854 62.1403C27.2919 58.3223 27.6526 52.8611 27.6526 51.8868V51.7666C27.6526 49.9524 27.6526 45.8148 26.859 41.161C25.5778 41.511 24.2691 41.742 22.9485 41.8511C21.4335 42.001 19.7743 42.0463 17.9993 42.0463C16.2244 42.0463 14.5638 42.001 13.0339 41.8511C11.718 41.7433 10.4142 41.5124 9.13828 41.161C8.35834 45.6861 8.37332 49.7219 8.37332 51.6111V51.8812C8.37332 52.8555 8.71905 58.3124 9.41187 62.1347C9.80252 64.1893 10.2354 65.7335 10.7118 65.7335C11.1882 65.7335 11.5053 64.8341 11.7217 63.471C11.9518 61.972 12.0675 59.9485 12.1682 57.8641C12.3274 54.8055 12.5003 51.6422 13.2503 49.2284C14.0153 46.7226 15.3996 45.0356 17.9993 45.0356ZM17.9993 7.43352e-05C20.0777 -0.00875915 22.0749 0.837762 23.5542 2.35452C25.0142 3.87139 25.8344 5.92865 25.8344 8.07375C25.8344 10.2189 25.0142 12.2761 23.5542 13.793C22.0694 15.3013 20.0753 16.1458 17.9987 16.1458C15.922 16.1458 13.9279 15.3013 12.4431 13.793C10.9832 12.2761 10.163 10.2189 10.163 8.07375C10.163 5.92865 10.9832 3.87139 12.4431 2.35452C13.9227 0.837415 15.9205 -0.0091335 17.9993 7.43352e-05Z" fill="#003F91"/>
</svg>
