<svg width="61" height="63" viewBox="0 0 61 63" fill="none" xmlns="http://www.w3.org/2000/svg">
<path d="M14.71 28.6248H10.7343C10.0783 28.6248 9.5416 28.0881 9.5416 27.4321V23.4564C9.5416 22.8004 10.0783 22.2637 10.7343 22.2637H14.71C15.3659 22.2637 15.9027 22.8004 15.9027 23.4564V27.4321C15.9027 28.0881 15.3659 28.6248 14.71 28.6248ZM25.4443 27.4321V23.4564C25.4443 22.8004 24.9075 22.2637 24.2516 22.2637H20.2759C19.6199 22.2637 19.0832 22.8004 19.0832 23.4564V27.4321C19.0832 28.0881 19.6199 28.6248 20.2759 28.6248H24.2516C24.9075 28.6248 25.4443 28.0881 25.4443 27.4321ZM34.9859 27.4321V23.4564C34.9859 22.8004 34.4491 22.2637 33.7932 22.2637H29.8175C29.1615 22.2637 28.6248 22.8004 28.6248 23.4564V27.4321C28.6248 28.0881 29.1615 28.6248 29.8175 28.6248H33.7932C34.4491 28.6248 34.9859 28.0881 34.9859 27.4321ZM25.4443 36.9737V32.998C25.4443 32.342 24.9075 31.8053 24.2516 31.8053H20.2759C19.6199 31.8053 19.0832 32.342 19.0832 32.998V36.9737C19.0832 37.6297 19.6199 38.1664 20.2759 38.1664H24.2516C24.9075 38.1664 25.4443 37.6297 25.4443 36.9737ZM15.9027 36.9737V32.998C15.9027 32.342 15.3659 31.8053 14.71 31.8053H10.7343C10.0783 31.8053 9.5416 32.342 9.5416 32.998V36.9737C9.5416 37.6297 10.0783 38.1664 10.7343 38.1664H14.71C15.3659 38.1664 15.9027 37.6297 15.9027 36.9737ZM34.9859 36.9737V32.998C34.9859 32.342 34.4491 31.8053 33.7932 31.8053H29.8175C29.1615 31.8053 28.6248 32.342 28.6248 32.998V36.9737C28.6248 37.6297 29.1615 38.1664 29.8175 38.1664H33.7932C34.4491 38.1664 34.9859 37.6297 34.9859 36.9737ZM44.5275 11.1319V46.1177C44.5275 48.7516 42.3905 50.8885 39.7567 50.8885H4.7708C2.13692 50.8885 0 48.7516 0 46.1177V11.1319C0 8.49799 2.13692 6.36107 4.7708 6.36107H9.5416V1.1927C9.5416 0.536715 10.0783 0 10.7343 0H14.71C15.3659 0 15.9027 0.536715 15.9027 1.1927V6.36107H28.6248V1.1927C28.6248 0.536715 29.1615 0 29.8175 0H33.7932C34.4491 0 34.9859 0.536715 34.9859 1.1927V6.36107H39.7567C42.3905 6.36107 44.5275 8.49799 44.5275 11.1319ZM39.7567 45.5214V15.9027H4.7708V45.5214C4.7708 45.8494 5.03916 46.1177 5.36715 46.1177H39.1603C39.4883 46.1177 39.7567 45.8494 39.7567 45.5214Z" fill="#003F91"/>
<path d="M53.7865 29.9778C50.5763 28.2103 49.7148 28.1348 45.2258 29.2577C44.6323 29.4081 44.0279 29.5175 43.4174 29.585C42.7993 29.5136 42.1877 29.3992 41.5875 29.2426C37.0771 28.1197 36.2371 28.1952 33.0269 29.9627C30.2018 31.3727 28.5753 35.4516 29.3832 40.0341C30.3195 45.3316 32.4811 45.7042 32.4811 51.4398C32.4811 57.1755 34.6694 60.0005 36.4297 60.0005C38.19 60.0005 39.0782 58.0416 41.0097 53.157C42.3366 49.8032 44.3056 49.2695 45.8251 53.157C47.7566 58.0416 48.6394 60.0005 50.405 60.0005C52.1707 60.0005 54.3537 57.1503 54.3537 51.4398C54.3537 45.7294 56.4938 45.397 57.4516 40.0341C58.2381 35.4667 56.6115 31.3878 53.7865 29.9778Z" fill="white" stroke="#003F91" stroke-width="6"/>
</svg>
