<svg width="61" height="63" viewBox="0 0 61 63" fill="none" xmlns="http://www.w3.org/2000/svg">
<path d="M9.5416 7.40536H10.5859V6.36107V1.1927C10.5859 1.11346 10.6551 1.04429 10.7343 1.04429H14.71C14.7892 1.04429 14.8584 1.11346 14.8584 1.1927V6.36107V7.40536H15.9027H28.6248H29.6691V6.36107V1.1927C29.6691 1.11346 29.7383 1.04429 29.8175 1.04429H33.7932C33.8724 1.04429 33.9416 1.11346 33.9416 1.1927V6.36107V7.40536H34.9859H39.7567C41.8138 7.40536 43.4832 9.07473 43.4832 11.1319V46.1177C43.4832 48.1749 41.8138 49.8442 39.7567 49.8442H4.7708C2.71367 49.8442 1.04429 48.1749 1.04429 46.1177V11.1319C1.04429 9.07473 2.71367 7.40536 4.7708 7.40536H9.5416ZM40.801 15.9027V14.8584H39.7567H4.7708H3.72651V15.9027V45.5214C3.72651 46.4261 4.4624 47.162 5.36715 47.162H39.1603C40.0651 47.162 40.801 46.4261 40.801 45.5214V15.9027ZM14.71 27.5805H10.7343C10.6551 27.5805 10.5859 27.5113 10.5859 27.4321V23.4564C10.5859 23.3772 10.6551 23.308 10.7343 23.308H14.71C14.7892 23.308 14.8584 23.3772 14.8584 23.4564V27.4321C14.8584 27.5113 14.7892 27.5805 14.71 27.5805ZM24.4 23.4564V27.4321C24.4 27.5113 24.3308 27.5805 24.2516 27.5805H20.2759C20.1967 27.5805 20.1275 27.5113 20.1275 27.4321V23.4564C20.1275 23.3772 20.1967 23.308 20.2759 23.308H24.2516C24.3308 23.308 24.4 23.3772 24.4 23.4564ZM33.9416 23.4564V27.4321C33.9416 27.5113 33.8724 27.5805 33.7932 27.5805H29.8175C29.7383 27.5805 29.6691 27.5113 29.6691 27.4321V23.4564C29.6691 23.3772 29.7383 23.308 29.8175 23.308H33.7932C33.8724 23.308 33.9416 23.3772 33.9416 23.4564ZM24.4 32.998V36.9737C24.4 37.0529 24.3308 37.1221 24.2516 37.1221H20.2759C20.1967 37.1221 20.1275 37.0529 20.1275 36.9737V32.998C20.1275 32.9188 20.1967 32.8496 20.2759 32.8496H24.2516C24.3308 32.8496 24.4 32.9188 24.4 32.998ZM14.8584 32.998V36.9737C14.8584 37.0529 14.7892 37.1221 14.71 37.1221H10.7343C10.6551 37.1221 10.5859 37.0529 10.5859 36.9737V32.998C10.5859 32.9188 10.6551 32.8496 10.7343 32.8496H14.71C14.7892 32.8496 14.8584 32.9188 14.8584 32.998ZM33.9416 32.998V36.9737C33.9416 37.0529 33.8724 37.1221 33.7932 37.1221H29.8175C29.7383 37.1221 29.6691 37.0529 29.6691 36.9737V32.998C29.6691 32.9188 29.7383 32.8496 29.8175 32.8496H33.7932C33.8724 32.8496 33.9416 32.9188 33.9416 32.998Z" fill="#5DA9E9" stroke="#5DA9E9" stroke-width="2.08859"/>
<path d="M53.7864 29.9778C50.5762 28.2103 49.7148 28.1348 45.2258 29.2577C44.6322 29.4081 44.0278 29.5175 43.4173 29.585C42.7992 29.5136 42.1876 29.3992 41.5875 29.2426C37.0771 28.1197 36.237 28.1952 33.0268 29.9627C30.2018 31.3727 28.5752 35.4516 29.3832 40.0341C30.3195 45.3316 32.4811 45.7042 32.4811 51.4398C32.4811 57.1755 34.6694 60.0005 36.4297 60.0005C38.19 60.0005 39.0781 58.0416 41.0096 53.157C42.3365 49.8032 44.3055 49.2695 45.825 53.157C47.7565 58.0416 48.6393 60.0005 50.405 60.0005C52.1706 60.0005 54.3536 57.1503 54.3536 51.4398C54.3536 45.7294 56.4938 45.397 57.4515 40.0341C58.238 35.4667 56.6115 31.3878 53.7864 29.9778Z" fill="white" stroke="#5DA9E9" stroke-width="6"/>
</svg>
