<svg width="24" height="24" viewBox="0 0 24 24" fill="none" xmlns="http://www.w3.org/2000/svg">
<g clip-path="url(#clip0_378_75)">
<path d="M9 12C12.3137 12 15 9.31371 15 6C15 2.68629 12.3137 0 9 0C5.68629 0 3 2.68629 3 6C3 9.31371 5.68629 12 9 12Z" fill="#003F91"/>
<path d="M9 14C6.61395 14.0029 4.32645 14.9521 2.63925 16.6392C0.952057 18.3264 0.00291096 20.6139 0 23C0 23.2652 0.105357 23.5195 0.292893 23.7071C0.48043 23.8946 0.734784 24 1 24H17C17.2652 24 17.5196 23.8946 17.7071 23.7071C17.8946 23.5195 18 23.2652 18 23C17.9971 20.6139 17.0479 18.3264 15.3607 16.6392C13.6735 14.9521 11.3861 14.0029 9 14V14Z" fill="#003F91"/>
</g>
<defs>
<clipPath id="clip0_378_75">
<rect width="24" height="24" fill="white"/>
</clipPath>
</defs>
</svg>
