<svg width="80" height="79" viewBox="0 0 80 79" fill="none" xmlns="http://www.w3.org/2000/svg">
<path d="M72.7209 49.387C74.6086 49.387 77.2808 47.7058 77.2749 45.6825V23.1659C77.2749 21.1367 75.812 18.7948 73.9479 18.1813C67.5605 16.1049 60.6797 16.1049 54.2924 18.1813C52.4283 18.7712 50.9653 21.1308 50.9653 23.1659V45.6825" stroke="white" stroke-width="4"/>
<path d="M26.3841 27.6133L32.5662 47.1036L25.8354 49.4396" stroke="white" stroke-width="4"/>
<path d="M45.084 45.4053C45.077 46.2322 44.8254 47.0384 44.361 47.7225C43.8965 48.4066 43.24 48.9379 42.4741 49.2495C41.7082 49.5611 40.8672 49.639 40.0571 49.4734C39.247 49.3078 38.504 48.9062 37.9218 48.319C37.3396 47.7319 36.9442 46.9856 36.7854 46.1741C36.6267 45.3626 36.7117 44.5223 37.0297 43.7591C37.3477 42.9958 37.8845 42.3438 38.5725 41.8851C39.2605 41.4264 40.0688 41.1817 40.8957 41.1816C41.448 41.184 41.9945 41.2951 42.5039 41.5086C43.0133 41.7221 43.4757 42.0338 43.8646 42.4261C44.2535 42.8183 44.5614 43.2832 44.7706 43.7944C44.9798 44.3056 45.0863 44.853 45.084 45.4053V45.4053Z" stroke="white" stroke-width="4"/>
<path d="M46.2928 54.0117H34.7603V66.6179H46.2928V54.0117Z" stroke="white" stroke-width="4"/>
<path d="M29.8291 47.6172L34.6958 54.0117" stroke="white" stroke-width="4"/>
<path d="M46.3633 54.0117L51.23 47.6172" stroke="white" stroke-width="4"/>
<path d="M37.2144 66.3701V77.0001" stroke="white" stroke-width="4"/>
<path d="M43.8394 66.3701V77.0001" stroke="white" stroke-width="4"/>
<path d="M11.7954 64.8604L13.0696 76.8176H19.24C19.6726 72.8338 20.0992 68.8481 20.52 64.8604" stroke="white" stroke-width="4"/>
<path d="M64.1191 52.7549V76.8169" stroke="white" stroke-width="4"/>
<path d="M56.4634 26.6221V75.3361H71.7772V26.6221" stroke="white" stroke-width="4"/>
<path d="M64.1191 52.7549V76.8169" stroke="white" stroke-width="4"/>
<path d="M26.3837 27.6132C25.7525 25.5957 24.0359 23.2361 22.6909 22.6462C20.6456 21.6741 18.4186 21.1435 16.1548 21.0889V21.0889C13.889 21.1434 11.6601 21.674 9.61279 22.6462C8.25602 23.2361 6.5512 25.5957 5.89641 27.6132L3 37.4527C3.97334 40.7326 5.16494 44.6731 6.14417 47.953" stroke="white" stroke-width="4"/>
<path d="M10.4037 28.8467L3.87354 61.1143H28.437L21.9068 28.8467" stroke="white" stroke-width="4"/>
<path d="M71.3162 9.24988C71.3058 10.671 70.8748 12.0571 70.0776 13.2336C69.2805 14.4101 68.1529 15.3243 66.837 15.8609C65.521 16.3975 64.0757 16.5324 62.6832 16.2488C61.2906 15.9651 60.0133 15.2755 59.0121 14.267C58.0109 13.2584 57.3307 11.976 57.0573 10.5814C56.7839 9.18683 56.9295 7.74253 57.4757 6.43058C58.0219 5.11863 58.9444 3.99776 60.1267 3.20929C61.309 2.42082 62.6983 2.00004 64.1194 2C65.0681 2.00309 66.0069 2.19311 66.8821 2.5592C67.7574 2.92529 68.5519 3.46027 69.2202 4.13356C69.8886 4.80685 70.4177 5.60526 70.7774 6.48315C71.137 7.36103 71.3201 8.30119 71.3162 9.24988V9.24988Z" stroke="white" stroke-width="4"/>
<path d="M23.0031 13.6976C22.9926 15.0442 22.5841 16.3575 21.8288 17.4724C21.0735 18.5873 20.0054 19.4538 18.7587 19.963C17.5121 20.4721 16.1426 20.6011 14.8229 20.3337C13.5031 20.0663 12.2919 19.4144 11.3417 18.4602C10.3916 17.5059 9.74492 16.2919 9.48319 14.971C9.22146 13.6501 9.35632 12.2812 9.87082 11.0368C10.3853 9.79234 11.2564 8.7279 12.3745 7.97743C13.4927 7.22697 14.8078 6.82403 16.1544 6.81934C17.056 6.82011 17.9487 6.99876 18.7812 7.34506C19.6137 7.69136 20.3697 8.1985 21.0059 8.83744C21.6421 9.47638 22.146 10.2346 22.4887 11.0685C22.8314 11.9025 23.0062 12.7959 23.0031 13.6976V13.6976Z" stroke="white" stroke-width="4"/>
</svg>
