<svg width="29" height="29" viewBox="0 0 29 29" fill="none" xmlns="http://www.w3.org/2000/svg">
<path d="M26.9992 20.7545V24.5254C27.0006 24.8755 26.9289 25.222 26.7887 25.5428C26.6484 25.8635 26.4428 26.1515 26.1848 26.3881C25.9268 26.6248 25.6223 26.805 25.2907 26.9171C24.959 27.0293 24.6076 27.0709 24.259 27.0394C20.391 26.6191 16.6755 25.2974 13.4111 23.1805C10.374 21.2506 7.79908 18.6756 5.86917 15.6385C3.74483 12.3593 2.4228 8.62573 2.0102 4.74037C1.97879 4.39277 2.0201 4.04243 2.1315 3.71167C2.2429 3.38091 2.42196 3.07697 2.65726 2.81921C2.89256 2.56144 3.17896 2.35549 3.49822 2.21447C3.81748 2.07345 4.1626 2.00045 4.51162 2.00012H8.2826C8.89262 1.99412 9.48402 2.21014 9.94656 2.60792C10.4091 3.0057 10.7112 3.5581 10.7966 4.16215C10.9557 5.36895 11.2509 6.55386 11.6765 7.6943C11.8456 8.14421 11.8822 8.63317 11.7819 9.10324C11.6817 9.57331 11.4488 10.0048 11.1108 10.3466L9.51445 11.9429C11.3039 15.0899 13.9095 17.6955 17.0564 19.4849L18.6528 17.8885C18.9946 17.5506 19.426 17.3177 19.8961 17.2174C20.3662 17.1171 20.8551 17.1537 21.305 17.3229C22.4455 17.7484 23.6304 18.0436 24.8372 18.2028C25.4478 18.2889 26.0054 18.5965 26.4041 19.0669C26.8027 19.5374 27.0145 20.138 26.9992 20.7545Z" stroke="#003F91" stroke-width="3" stroke-linecap="round" stroke-linejoin="round"/>
</svg>
