<svg width="68" height="60" viewBox="0 0 68 60" fill="none" xmlns="http://www.w3.org/2000/svg">
<path d="M42.385 23.3122L42.1511 22.903L29.835 1.34796C29.7418 1.18518 29.6073 1.04991 29.4451 0.955836C29.2828 0.861761 29.0986 0.812221 28.9111 0.812232H28.911H21.2352C20.5292 0.812232 20.0199 1.48747 20.2139 2.16632L19.4329 2.38945L20.2139 2.16632L25.9596 22.2769L26.2554 23.3122H25.1786H13.1247H12.7186L12.4749 22.9873L7.4124 16.2373L7.41221 16.2371C7.21199 15.9699 6.89639 15.8122 6.56219 15.8122H1.87586C1.18849 15.8122 0.683623 16.4536 0.841833 17.1193L4.52948 29.7727L4.59571 30L4.52948 30.2273L0.841828 42.8807C0.683634 43.5464 1.18849 44.1878 1.87586 44.1878H6.56219C6.89729 44.1878 7.21183 44.0303 7.41221 43.7629L7.4124 43.7627L12.4749 37.0127L12.7186 36.6878H13.1247H25.1786H26.2554L25.9596 37.7231L20.2139 57.8325C20.0198 58.5119 20.5298 59.1878 21.2352 59.1878H28.911C29.2916 59.1878 29.6439 58.9835 29.8335 58.6525L42.385 23.3122ZM42.385 23.3122H42.8563H56.2497C58.1457 23.3122 60.8168 24.0957 63.0147 25.3956C64.1065 26.0414 65.0413 26.7914 65.6947 27.5935C66.3476 28.3948 66.6875 29.2059 66.6875 30C66.6875 30.7941 66.3476 31.6052 65.6947 32.4065C65.0413 33.2086 64.1065 33.9586 63.0147 34.6044C60.8168 35.9043 58.1457 36.6878 56.2497 36.6878H42.8563H42.385L42.1511 37.097L29.8338 58.652L42.385 23.3122Z" fill="#5DA9E9" stroke="#5DA9E9" stroke-width="1.62446"/>
</svg>
