<svg width="85" height="76" viewBox="0 0 85 76" fill="none" xmlns="http://www.w3.org/2000/svg">
<path d="M70.9186 28.324H54.1769L38.7813 1.37964C38.5761 1.02091 38.2796 0.722788 37.9221 0.515458C37.5645 0.308128 37.1585 0.198949 36.7452 0.198975H27.1505C25.5934 0.198975 24.4698 1.68872 24.8976 3.18579L32.0797 28.324H17.0123L10.6842 19.8865C10.2418 19.2961 9.546 18.949 8.80918 18.949H2.95127C1.42637 18.949 0.307229 20.3816 0.677834 21.8611L5.29356 37.699L0.677834 53.5369C0.307229 55.0164 1.42637 56.449 2.95127 56.449H8.80918C9.54746 56.449 10.2418 56.1018 10.6842 55.5115L17.0123 47.074H32.0797L24.8976 72.2107C24.4698 73.7078 25.5934 75.199 27.1505 75.199H36.7452C37.586 75.199 38.3624 74.7478 38.7799 74.0183L54.1769 47.074H70.9186C76.0968 47.074 84.9811 42.8772 84.9811 37.699C84.9811 32.5208 76.0968 28.324 70.9186 28.324Z" fill="#777676"/>
</svg>
