<svg width="68" height="60" viewBox="0 0 68 60" fill="none" xmlns="http://www.w3.org/2000/svg">
<path d="M56.2497 22.5H42.8563L30.5399 0.944531C30.3757 0.657548 30.1386 0.419051 29.8525 0.253187C29.5665 0.0873223 29.2417 -2.07336e-05 28.911 3.69178e-09H21.2352C19.9895 3.69178e-09 19.0907 1.1918 19.4329 2.38945L25.1786 22.5H13.1247L8.06219 15.75C7.70828 15.2777 7.15164 15 6.56219 15H1.87586C0.655939 15 -0.239373 16.1461 0.0571111 17.3297L3.74969 30L0.0571111 42.6703C-0.239373 43.8539 0.655939 45 1.87586 45H6.56219C7.15281 45 7.70828 44.7223 8.06219 44.25L13.1247 37.5H25.1786L19.4329 57.6094C19.0907 58.807 19.9895 60 21.2352 60H28.911C29.5837 60 30.2048 59.6391 30.5388 59.0555L42.8563 37.5H56.2497C60.3923 37.5 67.4997 34.1426 67.4997 30C67.4997 25.8574 60.3923 22.5 56.2497 22.5Z" fill="#003F91"/>
</svg>
