<svg width="95" height="106" viewBox="0 0 95 106" fill="none" xmlns="http://www.w3.org/2000/svg">
<path d="M59.5407 35.205C55.693 32.995 54.6834 32.9075 49.3014 34.3067C48.5918 34.4959 47.869 34.6314 47.139 34.7121C46.4066 34.6308 45.6812 34.4952 44.9688 34.3067C39.5947 32.9075 38.6089 32.995 34.7374 35.205C31.3667 36.9619 29.427 42.0497 30.3889 47.7656C31.5019 54.3798 34.0855 54.8409 34.0855 61.9957C34.0855 69.1505 36.701 72.6722 38.7997 72.6722C40.8985 72.6722 41.9796 70.2316 44.2612 64.1342C45.8512 59.9447 48.1884 59.2848 50.0169 64.1342C52.3223 70.2316 53.3796 72.6722 55.4783 72.6722C57.5771 72.6722 60.1925 69.1107 60.1925 61.9957C60.1925 54.8807 62.7603 54.4434 63.8892 47.7656C64.859 42.0497 62.9114 36.9619 59.5407 35.205Z" stroke="#003F91" stroke-width="4"/>
<path d="M44.2768 102.213C26.1275 96.982 2 86.4168 2 55.3015V15.0677L47.1387 3L92.2774 15.0677V55.3015C92.2774 86.4168 68.1579 96.982 50.0006 102.205L47.1387 103L44.2768 102.213Z" stroke="#003F91" stroke-width="4"/>
<path d="M26.8989 84.0315C16.5722 77.1073 11.9375 67.822 11.9375 55.0149V22.0234" stroke="#003F91" stroke-width="4"/>
<path d="M46.1369 11.7607L82.7057 21.5469V55.3254C82.7057 80.4943 63.3878 89.2947 46.5661 94.1441L46.0892 94.2792L45.6201 94.1441" stroke="#003F91" stroke-width="4"/>
</svg>
