<svg width="67" height="61" viewBox="0 0 67 61" fill="none" xmlns="http://www.w3.org/2000/svg">
<path fill-rule="evenodd" clip-rule="evenodd" d="M45.2195 60.7943C47.1545 60.0352 50.1743 58.3675 52.3595 56.8516C54.974 55.0378 58.566 51.5786 60.3549 49.1518C63.568 44.7931 65.2489 40.3599 66.2148 33.696C66.8643 29.2149 66.9105 28.0772 66.9705 15.0709C67.0342 1.23822 67.0923 2.10647 66.0303 1.01052C65.0055 -0.0472121 65.6118 0.000327979 53.1296 0.00032721C41.074 0.000326469 41.496 -0.0250617 40.5 0.759054C40.2456 0.959203 39.8786 1.40218 39.6841 1.74332L39.3308 2.36375L39.2954 14.1491L39.2598 25.9345L39.5425 26.6129C39.8745 27.4093 40.7857 28.2968 41.4739 28.4942C41.756 28.5749 44.107 28.6303 47.2805 28.6307L52.613 28.6315L52.613 29.4807C52.613 31.4143 52.0788 34.6956 51.4102 36.8697C50.5212 39.7601 49.1649 42.0906 47.2001 44.1033C45.5973 45.7454 43.7412 47.0495 41.132 48.367C39.224 49.3304 38.9378 49.5694 38.4136 50.6378C38.2748 50.9207 38.1823 51.425 38.1777 51.9235C38.1711 52.6451 38.2583 52.9382 38.9028 54.3617C41.3553 59.7788 41.5559 60.1226 42.5804 60.662C43.3317 61.0575 44.4105 61.1116 45.2195 60.7943ZM6.52287 60.8933C7.24809 60.7551 10.6581 59.033 12.5047 57.8723C18.1068 54.3511 22.4797 49.6336 25.0386 44.3507C26.9098 40.4878 27.8367 36.5856 28.4894 29.8213C28.6629 28.0238 28.7126 25.3361 28.7595 15.207C28.8243 1.22255 28.8829 2.10809 27.8194 1.01052C26.7947 -0.0470794 27.4001 0.000325627 14.9256 0.000324859C2.76657 0.000324111 3.19277 -0.0269606 2.204 0.814148C1.94464 1.03482 1.57994 1.53128 1.39346 1.91739L1.05454 2.6194L1.05742 14.3086C1.06029 25.7765 1.0654 26.0095 1.32686 26.6057C1.6332 27.3043 2.10049 27.8485 2.7557 28.2696C3.20311 28.5572 3.34365 28.5656 8.83882 28.6315L14.4639 28.699L14.424 29.7794C14.3208 32.57 13.668 35.8911 12.7615 38.2373C11.8293 40.6496 10.713 42.4092 9.01888 44.1362C7.4771 45.708 5.90299 46.828 3.43211 48.111C1.06343 49.3409 0.401409 49.9077 0.133279 50.9352C-0.184054 52.1513 -0.0169335 52.7641 1.54487 56.1147C2.41652 57.9847 3.19002 59.457 3.48838 59.8141C4.24631 60.7212 5.35548 61.1157 6.52287 60.8933Z" fill="white"/>
</svg>
