<svg width="90" height="79" viewBox="0 0 90 79" fill="none" xmlns="http://www.w3.org/2000/svg">
<path d="M57.0454 21.8761C53.3091 19.6943 52.3349 19.6009 47.1174 20.9887C46.427 21.1713 45.7247 21.305 45.0157 21.389C44.3066 21.305 43.6043 21.1713 42.9139 20.9887C37.6964 19.6009 36.7423 19.6943 33.0259 21.8761C29.7566 23.6175 27.8684 28.6483 28.8091 34.2995C29.8767 40.8382 32.3587 41.2919 32.3587 48.371C32.3587 55.4501 34.8874 58.9329 36.9291 58.9329C38.9707 58.9329 39.9916 56.5176 42.22 50.486C43.7546 46.3493 46.0298 45.6955 47.8113 50.486C50.0464 56.4909 51.0672 58.9329 53.1022 58.9329C55.1372 58.9329 57.7126 55.4167 57.7126 48.371C57.7126 41.3253 60.208 40.9049 61.2956 34.2995C62.2163 28.6483 60.3348 23.6175 57.0454 21.8761Z" stroke="#003F91" stroke-width="4"/>
<path d="M25.4389 4.43543C24.5507 5.35469 23.8924 6.47097 23.5179 7.69314C23.1434 8.91531 23.0631 10.2087 23.2838 11.4678C24.5409 11.6584 25.8253 11.5446 27.0292 11.1359C28.2332 10.7272 29.3215 10.0357 30.2028 9.11924C31.091 8.19998 31.7492 7.0837 32.1238 5.86152C32.4983 4.63935 32.5785 3.34593 32.3579 2.08685C31.101 1.90127 29.8179 2.01747 28.6148 2.42585C27.4117 2.83423 26.3231 3.52307 25.4389 4.43543V4.43543Z" stroke="#003F91" stroke-width="4"/>
<path d="M11.9603 15.1106C12.0753 16.3406 12.4799 17.526 13.1409 18.5697C13.8019 19.6133 14.7006 20.4857 15.7634 21.1155C16.6958 20.296 17.4211 19.2677 17.8803 18.1145C18.3395 16.9613 18.5195 15.7159 18.4057 14.4798C18.2918 13.2438 17.8874 12.0522 17.2252 11.0023C16.5631 9.95234 15.6621 9.07385 14.5958 8.43848C13.6586 9.26167 12.9307 10.2961 12.4725 11.4563C12.0142 12.6165 11.8387 13.8691 11.9603 15.1106V15.1106Z" stroke="#003F91" stroke-width="4"/>
<path d="M5.3349 31.9243C5.9554 32.9991 6.82444 33.9095 7.86922 34.5794C8.914 35.2492 10.1041 35.6589 11.3398 35.7741C11.8381 34.6362 12.0615 33.397 11.992 32.1567C11.9224 30.9165 11.5619 29.71 10.9395 28.635C10.3173 27.5616 9.44778 26.6523 8.40333 25.9827C7.35889 25.3131 6.16967 24.9025 4.93457 24.7852C4.43468 25.9227 4.2104 27.1621 4.27996 28.4027C4.34952 29.6432 4.71097 30.8498 5.3349 31.9243V31.9243Z" stroke="#003F91" stroke-width="4"/>
<path d="M6.37608 49.986C7.38591 50.6946 8.55136 51.15 9.77413 51.3137C10.9969 51.4775 12.2411 51.3447 13.4018 50.9267C13.3835 49.6878 13.0716 48.471 12.4916 47.3761C11.9117 46.2812 11.0803 45.3394 10.0657 44.6283C9.05103 43.9136 7.87858 43.4548 6.6483 43.291C5.41801 43.1272 4.16637 43.2632 3 43.6875C3.0239 44.9297 3.34243 46.1484 3.92937 47.2434C4.51631 48.3384 5.35488 49.2784 6.37608 49.986V49.986Z" stroke="#003F91" stroke-width="4"/>
<path d="M14.8895 65.9122C16.1105 66.1251 17.3646 66.0417 18.5466 65.669C19.7286 65.2963 20.8038 64.6452 21.6817 63.7705C21.1468 62.6564 20.3531 61.6864 19.3669 60.9416C18.3806 60.1968 17.2305 59.6988 16.0126 59.4892C14.7946 59.2796 13.5442 59.3644 12.3657 59.7366C11.1872 60.1088 10.1149 60.7576 9.23828 61.6287C9.773 62.7398 10.5643 63.7076 11.547 64.4525C12.5296 65.1973 13.6753 65.6976 14.8895 65.9122V65.9122Z" stroke="#003F91" stroke-width="4"/>
<path d="M29.2809 76.7278C30.4737 76.3962 31.5706 75.7859 32.4812 74.9472C33.3918 74.1085 34.0901 73.0654 34.5185 71.9039C33.5631 71.1231 32.4343 70.5829 31.2269 70.3286C30.0195 70.0744 28.7687 70.1135 27.5796 70.4427C26.3882 70.7736 25.2927 71.383 24.3832 72.2205C23.4737 73.0581 22.7763 74.0999 22.3486 75.26C23.3043 76.038 24.4317 76.577 25.6373 76.8322C26.8429 77.0875 28.0919 77.0517 29.2809 76.7278V76.7278Z" stroke="#003F91" stroke-width="4"/>
<path d="M40.3638 71.2301C34.0497 70.0599 28.1923 67.1366 23.4611 62.7946C18.7299 58.4526 15.316 52.8669 13.6094 46.6762C11.9029 40.4855 11.9727 33.9395 13.8108 27.7866C15.6489 21.6336 19.1812 16.122 24.0038 11.8818" stroke="#003F91" stroke-width="4"/>
<path d="M64.6362 4.43531C65.5238 5.35622 66.1811 6.47392 66.5544 7.69723C66.9278 8.92053 67.0067 10.2148 66.7846 11.4744C65.5281 11.6619 64.2449 11.5459 63.0424 11.1362C61.8399 10.7265 60.7529 10.0348 59.8723 9.11912C58.9829 8.20049 58.3234 7.08449 57.9477 5.86229C57.572 4.64009 57.4907 3.34635 57.7105 2.08674C58.9685 1.90005 60.2528 2.01571 61.4571 2.42412C62.6615 2.83253 63.7513 3.52196 64.6362 4.43531V4.43531Z" stroke="#003F91" stroke-width="4"/>
<path d="M78.1067 15.1106C77.9917 16.3406 77.5872 17.526 76.9262 18.5697C76.2652 19.6133 75.3665 20.4857 74.3036 21.1155C73.3716 20.2955 72.6467 19.2668 72.188 18.1133C71.7293 16.9598 71.5499 15.7142 71.6644 14.4781C71.7789 13.242 72.1841 12.0506 72.8468 11.0009C73.5096 9.95131 74.4111 9.07327 75.4779 8.43848C76.4131 9.26302 77.139 10.2979 77.5961 11.4578C78.0531 12.6178 78.2281 13.8697 78.1067 15.1106V15.1106Z" stroke="#003F91" stroke-width="4"/>
<path d="M84.7329 31.9243C84.1124 32.9991 83.2434 33.9095 82.1986 34.5794C81.1538 35.2492 79.9637 35.6589 78.728 35.7741C78.2287 34.6367 78.0042 33.3978 78.0726 32.1575C78.1409 30.9173 78.5003 29.7105 79.1217 28.635C79.7439 27.5616 80.6134 26.6523 81.6578 25.9827C82.7022 25.3131 83.8915 24.9025 85.1266 24.7852C85.6275 25.9221 85.8529 27.1613 85.7845 28.4019C85.7161 29.6424 85.3558 30.8493 84.7329 31.9243Z" stroke="#003F91" stroke-width="4"/>
<path d="M83.6927 49.9861C82.6829 50.6948 81.5174 51.1502 80.2947 51.3139C79.0719 51.4777 77.8277 51.3449 76.667 50.9269C76.6885 49.6887 77.0018 48.4729 77.5815 47.3785C78.1611 46.2842 78.9908 45.3419 80.003 44.6284C81.0192 43.9169 82.1915 43.4599 83.4212 43.2962C84.6508 43.1325 85.9019 43.2668 87.0688 43.6877C87.0449 44.9298 86.7264 46.1486 86.1394 47.2436C85.5525 48.3386 84.7139 49.2785 83.6927 49.9861V49.9861Z" stroke="#003F91" stroke-width="4"/>
<path d="M75.1779 65.9122C73.957 66.1268 72.7024 66.0442 71.5201 65.6714C70.3378 65.2986 69.2627 64.6466 68.3857 63.7704C68.921 62.6556 69.7154 61.6852 70.7025 60.9402C71.6896 60.1952 72.8407 59.6974 74.0596 59.4884C75.2784 59.2794 76.5296 59.3652 77.7085 59.7387C78.8874 60.1122 79.9598 60.7626 80.8359 61.6354C80.2975 62.7444 79.5041 63.7101 78.5206 64.4534C77.5372 65.1968 76.3917 65.6967 75.1779 65.9122V65.9122Z" stroke="#003F91" stroke-width="4"/>
<path d="M60.7864 76.727C59.5932 76.3964 58.4958 75.7865 57.585 74.9476C56.6742 74.1088 55.9763 73.0652 55.5488 71.9031C56.5062 71.1226 57.6361 70.5822 58.8446 70.3267C60.0531 70.0713 61.3051 70.1084 62.4964 70.4347C63.6877 70.7611 64.7837 71.3674 65.6933 72.2031C66.6028 73.0388 67.2995 74.0797 67.7254 75.2391C66.771 76.0221 65.6433 76.5656 64.4363 76.8244C63.2293 77.0833 61.9779 77.0499 60.7864 76.727V76.727Z" stroke="#003F91" stroke-width="4"/>
<path d="M49.7041 71.2301C56.0172 70.0585 61.8734 67.1348 66.6038 62.7929C71.3341 58.451 74.7478 52.8662 76.4547 46.6763C78.1617 40.4865 78.0932 33.9413 76.257 27.7886C74.4208 21.6359 70.8909 16.1237 66.0707 11.8818" stroke="#003F91" stroke-width="4"/>
</svg>
