<svg width="68" height="80" viewBox="0 0 68 80" fill="none" xmlns="http://www.w3.org/2000/svg">
<path d="M33.7061 2C16.178 2 2 15.9627 2 33.1797C2 50.3967 33.7061 77 33.7061 77C33.7061 77 65.4123 50.4147 65.4123 33.1797C65.4123 15.9447 51.1924 2 33.7061 2Z" stroke="#003F91" stroke-width="4"/>
<path d="M43.1882 18.655C40.1971 16.9261 39.3715 16.8603 35.148 17.9551C34.5899 18.0993 34.0221 18.2032 33.4491 18.2662C32.876 18.2037 32.3082 18.0998 31.7501 17.9551C27.5266 16.8543 26.731 16.956 23.7159 18.655C21.0657 20.0309 19.5283 24.0391 20.3 28.4779C21.1734 33.6407 23.1954 34.0056 23.1954 39.599C23.1954 45.1925 25.2473 47.9742 26.8985 47.9742C28.5496 47.9742 29.3811 46.0659 31.1878 41.298C32.4321 38.0317 34.2746 37.5112 35.7164 41.298C37.5111 46.0838 38.3546 47.9742 39.9997 47.9742C41.6448 47.9742 43.7027 45.1925 43.7027 39.599C43.7027 34.0056 45.7188 33.7065 46.6041 28.4779C47.3579 24.0092 45.8384 20.0309 43.1882 18.655Z" stroke="#003F91" stroke-width="4"/>
</svg>
