<svg width="79" height="79" viewBox="0 0 79 79" fill="none" xmlns="http://www.w3.org/2000/svg">
<path d="M36.4742 60.4513C38.7457 60.8578 41.0495 61.0565 43.3571 61.0447C47.9035 61.0547 52.4129 60.228 56.6601 58.606L62.3682 60.1487L74.1937 63.3529L71.0252 51.4027L70.3547 48.8928C74.4558 44.0357 76.7235 37.894 76.763 31.5372C76.763 15.2259 61.8045 2 43.3571 2C24.9097 2 9.94531 15.2259 9.94531 31.5372C9.94531 32.356 9.98091 33.1689 10.058 33.9699" stroke="#003F91" stroke-width="4"/>
<path d="M33.3114 17.8008H27.5439" stroke="#003F91" stroke-width="4"/>
<path d="M54.5722 17.8008H48.7988" stroke="#003F91" stroke-width="4"/>
<path d="M30.0605 25.6211C30.3335 32.4803 35.2287 37.9451 41.2512 37.9451C47.2738 37.9451 52.1689 32.4803 52.4359 25.6211H30.0605Z" stroke="#003F91" stroke-width="4"/>
<path d="M30.5709 39.7852C26.8328 37.5898 25.8241 37.5008 20.6204 38.8951C19.9308 39.0784 19.2288 39.2113 18.5199 39.2927C17.809 39.2118 17.105 39.079 16.4135 38.8951C11.1861 37.5008 10.207 37.5898 6.46889 39.7852C3.18764 41.5296 1.3067 46.585 2.23827 52.2634C3.32411 58.8259 5.7984 59.2828 5.7984 66.3971C5.7984 73.5114 8.33795 77.0004 10.385 77.0004C12.4321 77.0004 13.4527 74.5735 15.6896 68.5154C17.2264 64.3619 19.5049 63.7033 21.2849 68.5154C23.5278 74.5735 24.5543 77.0004 26.6251 77.0004C28.6959 77.0004 31.2058 73.4402 31.2058 66.3971C31.2058 59.354 33.6979 58.8971 34.7956 52.2634C35.7331 46.585 33.8463 41.5296 30.5709 39.7852Z" stroke="#003F91" stroke-width="4"/>
<path d="M12.7404 52.2627H9.13281" stroke="#003F91" stroke-width="4"/>
<path d="M20.4425 52.2627H16.8408" stroke="#003F91" stroke-width="4"/>
<path d="M28.1506 52.2627H24.543" stroke="#003F91" stroke-width="4"/>
</svg>
