<svg width="50" height="58" viewBox="0 0 50 58" fill="none" xmlns="http://www.w3.org/2000/svg">
<path d="M25 28.5714C32.8906 28.5714 39.2857 22.1763 39.2857 14.2857C39.2857 6.39509 32.8906 0 25 0C17.1094 0 10.7143 6.39509 10.7143 14.2857C10.7143 22.1763 17.1094 28.5714 25 28.5714ZM11.6071 47.3214C11.6071 48.8058 12.8013 50 14.2857 50C15.7701 50 16.9643 48.8058 16.9643 47.3214C16.9643 45.8371 15.7701 44.6429 14.2857 44.6429C12.8013 44.6429 11.6071 45.8371 11.6071 47.3214ZM35.7143 32.2098V37.6786C39.7879 38.5045 42.8571 42.1205 42.8571 46.4286V51.0826C42.8571 51.9308 42.2545 52.6674 41.4174 52.8348L37.8237 53.5491C37.3437 53.6496 36.875 53.3371 36.7746 52.846L36.4286 51.0937C36.3281 50.6138 36.6406 50.1339 37.1317 50.0446L39.2857 49.6094V46.4286C39.2857 39.4196 28.5714 39.1629 28.5714 46.6406V49.6205L30.7254 50.0558C31.2054 50.1562 31.5179 50.625 31.4286 51.1049L31.0826 52.8571C30.9821 53.3371 30.5134 53.6496 30.0335 53.5603L26.5513 53.0915C25.6696 52.9688 25.0112 52.221 25.0112 51.317V46.4286C25.0112 42.1205 28.0804 38.5156 32.154 37.6786V32.6339C31.9085 32.7121 31.6629 32.7567 31.4174 32.846C29.4085 33.5491 27.2545 33.9397 25.0112 33.9397C22.7679 33.9397 20.6138 33.5491 18.6049 32.846C17.779 32.5558 16.942 32.3772 16.0826 32.2656V41.3728C18.6607 42.1429 20.5469 44.5089 20.5469 47.3326C20.5469 50.7813 17.7455 53.5826 14.2969 53.5826C10.8482 53.5826 8.04687 50.7813 8.04687 47.3326C8.04687 44.5089 9.93304 42.1429 12.5112 41.3728V32.3996C5.41295 33.5937 0 39.7098 0 47.1429V52.1429C0 54.8996 2.2433 57.1429 5 57.1429H45C47.7567 57.1429 50 54.8996 50 52.1429V47.1429C50 39.1071 43.6607 32.6004 35.7143 32.2098Z" fill="#003F91"/>
</svg>
