<svg width="86" height="76" viewBox="0 0 86 76" fill="none" xmlns="http://www.w3.org/2000/svg">
<path d="M43.0387 17.0458L11.0281 45.2743C10.7908 45.4881 10.4876 45.5877 10.2269 45.765V72.8553C10.2269 73.4769 10.4738 74.073 10.9133 74.5125C11.3528 74.952 11.949 75.199 12.5706 75.199H73.5069C74.1285 75.199 74.7246 74.952 75.1641 74.5125C75.6037 74.073 75.8506 73.4769 75.8506 72.8553V45.7708C75.6016 45.6009 75.3057 45.5042 75.0801 45.3021L43.0387 17.0458ZM57.101 55.2775C57.101 55.5883 56.9775 55.8863 56.7577 56.1061C56.538 56.3259 56.2399 56.4493 55.9291 56.4493H47.7261V64.6523C47.7261 64.9631 47.6027 65.2612 47.3829 65.4809C47.1631 65.7007 46.8651 65.8242 46.5543 65.8242H39.5232C39.2124 65.8242 38.9143 65.7007 38.6945 65.4809C38.4748 65.2612 38.3513 64.9631 38.3513 64.6523V56.4493H30.1483C29.8376 56.4493 29.5395 56.3259 29.3197 56.1061C29.1 55.8863 28.9765 55.5883 28.9765 55.2775V48.2464C28.9765 47.9356 29.1 47.6375 29.3197 47.4177C29.5395 47.198 29.8376 47.0745 30.1483 47.0745H38.3513V38.8716C38.3513 38.5608 38.4748 38.2627 38.6945 38.0429C38.9143 37.8232 39.2124 37.6997 39.5232 37.6997H46.5543C46.8651 37.6997 47.1631 37.8232 47.3829 38.0429C47.6027 38.2627 47.7261 38.5608 47.7261 38.8716V47.0745H55.9291C56.2399 47.0745 56.538 47.198 56.7577 47.4177C56.9775 47.6375 57.101 47.9356 57.101 48.2464V55.2775ZM84.4476 34.8111L46.9571 1.70626C45.884 0.736117 44.489 0.198975 43.0424 0.198975C41.5958 0.198975 40.2007 0.736117 39.1277 1.70626L1.62839 34.8111C1.39933 35.0168 1.21303 35.2656 1.08015 35.5433C0.947265 35.821 0.870398 36.1222 0.853938 36.4296C0.837478 36.737 0.881749 37.0447 0.984221 37.335C1.08669 37.6253 1.24536 37.8926 1.45115 38.1216L4.58732 41.6108C4.79302 41.8398 5.04182 42.0261 5.31954 42.159C5.59725 42.2919 5.89842 42.3688 6.20584 42.3852C6.51327 42.4017 6.82093 42.3574 7.11124 42.2549C7.40155 42.1525 7.66883 41.9938 7.8978 41.788L41.489 12.1577C41.9171 11.78 42.4685 11.5715 43.0395 11.5715C43.6104 11.5715 44.1618 11.78 44.59 12.1577L78.1811 41.7865C78.4101 41.9923 78.6774 42.151 78.9677 42.2535C79.258 42.3559 79.5656 42.4002 79.8731 42.3838C80.1805 42.3673 80.4817 42.2904 80.7594 42.1575C81.0371 42.0247 81.2859 41.8384 81.4916 41.6093L84.6263 38.1201C85.0413 37.6576 85.2556 37.0491 85.2221 36.4286C85.1886 35.8081 84.91 35.2263 84.4476 34.8111Z" fill="#777676"/>
</svg>
