<svg width="75" height="60" viewBox="0 0 75 60" fill="none" xmlns="http://www.w3.org/2000/svg">
<path d="M13.4916 16.0435L25.4315 20.4004C29.5463 10.8451 35.5122 3.49164 41.685 0.0451975C30.4736 -0.527843 19.6106 4.3764 12.624 13.1466C11.8417 14.131 12.3129 15.6134 13.4916 16.0435V16.0435ZM28.9558 21.6871L56.8417 31.8624C61.0232 17.6384 59.0283 4.71507 51.8569 2.09947C50.9916 1.78307 50.0877 1.63073 49.157 1.63073C42.3726 1.6319 34.1581 9.7365 28.9558 21.6871V21.6871ZM60.9776 7.09043C61.7049 9.00057 62.244 11.1451 62.5211 13.5579C63.1923 19.4044 62.355 26.241 60.3052 33.1257L72.3048 37.5038C73.4846 37.9338 74.7966 37.1018 74.827 35.8432C75.0983 24.6297 69.9264 13.8779 60.9776 7.09043V7.09043ZM65.4818 52.4977H37.5421L45.1357 31.5823L38.1034 29.016L29.5791 52.4966H1.87091C0.837231 52.4966 0 53.3356 0 54.3727V58.1238C0 59.1598 0.837231 60 1.87091 60H65.4818C66.5155 60 67.3527 59.1598 67.3527 58.1238V54.3727C67.3527 53.3368 66.5155 52.4977 65.4818 52.4977Z" fill="#003F91"/>
</svg>
