<svg width="75" height="60" viewBox="0 0 75 60" fill="none" xmlns="http://www.w3.org/2000/svg">
<path d="M51.6064 2.78622L51.6059 2.78601C50.8253 2.50058 50.0068 2.36174 49.1571 2.36172L51.6064 2.78622ZM51.6064 2.78622C54.8206 3.9585 57.0289 7.5084 57.8852 12.7457C58.7057 17.7634 58.244 24.1492 56.3553 30.9068M51.6064 2.78622L56.3553 30.9068M56.3553 30.9068L29.941 21.2685C32.4647 15.6761 35.6437 11.0012 38.9777 7.6971C42.4695 4.2365 46.0438 2.36231 49.157 2.36172L56.3553 30.9068ZM13.7422 15.3568L13.7422 15.3567C12.9977 15.0851 12.7471 14.1672 13.1959 13.6019C19.5294 5.65163 29.118 0.945927 39.2171 0.738182C33.7805 4.56051 28.7076 11.2028 25.0368 19.4783L13.7422 15.3568ZM36.855 52.2483L36.499 53.2287H37.5421H65.4818C66.1103 53.2287 66.6217 53.739 66.6217 54.3727V58.1238C66.6217 58.7582 66.1097 59.269 65.4818 59.269H1.87091C1.24304 59.269 0.730998 58.7582 0.730998 58.1238V54.3727C0.730998 53.7375 1.24275 53.2276 1.87091 53.2276H29.5791H30.0914L30.2662 52.746L38.5406 29.9537L44.1995 32.0189L36.855 52.2483ZM63.2473 13.4746C63.0735 11.9613 62.7988 10.5484 62.4398 9.2284C70.0254 15.8964 74.3419 25.6682 74.0962 35.8256C74.0788 36.5476 73.3001 37.0885 72.5551 36.817L61.1989 32.6736C63.1282 25.9443 63.911 19.2553 63.2473 13.4746Z" fill="#5DA9E9" stroke="#5DA9E9" stroke-width="1.462"/>
</svg>
