<svg width="94" height="76" viewBox="0 0 94 76" fill="none" xmlns="http://www.w3.org/2000/svg">
<path d="M16.9768 20.4532L31.9017 25.8995C37.0452 13.9553 44.5025 4.76348 52.2186 0.455423C38.2043 -0.260878 24.6256 5.86943 15.8922 16.8322C14.9144 18.0626 15.5035 19.9157 16.9768 20.4532ZM36.3071 27.5079L71.1644 40.227C76.3913 22.4469 73.8977 6.29276 64.9334 3.02327C63.8518 2.62776 62.722 2.43733 61.5585 2.43733C53.078 2.4388 42.8099 12.5695 36.3071 27.5079ZM76.3343 9.26197C77.2434 11.6496 77.9173 14.3303 78.2637 17.3463C79.1026 24.6544 78.0561 33.2002 75.4938 41.806L90.4933 47.2786C91.9681 47.8162 93.608 46.7762 93.646 45.203C93.9851 31.186 87.5203 17.7462 76.3343 9.26197ZM81.9646 66.0211H47.04L56.5319 39.8769L47.7415 36.6689L37.0861 66.0196H2.45094C1.15884 66.0196 0.112305 67.0685 0.112305 68.3648V73.0537C0.112305 74.3486 1.15884 75.3989 2.45094 75.3989H81.9646C83.2567 75.3989 84.3032 74.3486 84.3032 73.0537V68.3648C84.3032 67.0699 83.2567 66.0211 81.9646 66.0211Z" fill="#777676"/>
</svg>
